<svg width="619" height="621" viewBox="0 0 619 621" fill="none" xmlns="http://www.w3.org/2000/svg">
<path d="M283.777 27.7082C298.019 13.4668 321.108 13.4668 335.35 27.7082L593.213 285.572C607.455 299.813 607.455 322.903 593.213 337.145L504.133 426.225C489.892 440.466 466.802 440.466 452.561 426.225L194.697 168.361C180.456 154.12 180.456 131.03 194.697 116.788L283.777 27.7082Z" fill="#F9A619"/>
<path d="M283.777 365.275C298.019 351.033 321.108 351.033 335.35 365.275L424.43 454.355C438.671 468.596 438.671 491.686 424.43 505.928L335.35 595.008C321.108 609.249 298.019 609.249 283.777 595.008L194.697 505.928C180.456 491.686 180.456 468.596 194.697 454.355L283.777 365.275Z" fill="#3B85DB"/>
<path d="M70.4538 241.032C109.294 202.191 172.267 202.191 211.107 241.032C249.947 279.872 249.947 342.844 211.107 381.684C172.267 420.525 109.294 420.525 70.4538 381.684C31.6136 342.844 31.6136 279.872 70.4538 241.032Z" fill="#EB3669"/>
<path d="M283.778 26.5256C298.019 12.2842 321.109 12.2842 335.35 26.5256L593.214 284.389C607.455 298.631 607.455 321.721 593.214 335.962L504.134 425.042C489.892 439.284 466.802 439.284 452.561 425.042L194.697 167.178C180.456 152.937 180.456 129.847 194.697 115.606L283.778 26.5256Z" fill="#F9A619"/>
<path d="M283.777 364.091C298.019 349.85 321.108 349.85 335.35 364.091L424.43 453.171C438.671 467.413 438.671 490.503 424.43 504.744L335.35 593.824C321.108 608.065 298.019 608.066 283.777 593.824L194.697 504.744C180.456 490.503 180.456 467.413 194.697 453.171L283.777 364.091Z" fill="#3B85DB"/>
<path d="M70.4538 239.848C109.294 201.008 172.267 201.008 211.107 239.848C249.947 278.688 249.947 341.661 211.107 380.501C172.267 419.341 109.294 419.341 70.4538 380.501C31.6136 341.661 31.6136 278.688 70.4538 239.848Z" fill="#EB3669"/>
</svg>
