<svg width="22" height="16" viewBox="0 0 22 16" fill="none" xmlns="http://www.w3.org/2000/svg">
<g clip-path="url(#clip0_2_3054)">
<g clip-path="url(#clip1_2_3054)">
<rect width="22" height="16" rx="2" fill="#F93939"/>
<path d="M19.9048 0H2.09524C0.93807 0 0 0.955126 0 2.13333V13.8667C0 15.0449 0.93807 16 2.09524 16H19.9048C21.0619 16 22 15.0449 22 13.8667V2.13333C22 0.955126 21.0619 0 19.9048 0Z" fill="#F93939"/>
<path fill-rule="evenodd" clip-rule="evenodd" d="M0 8H22V16H0V8Z" fill="#151515"/>
<path fill-rule="evenodd" clip-rule="evenodd" d="M13.0439 10.225C13.4986 9.60424 13.7668 8.8341 13.7668 7.99997C13.7668 6.43517 12.8208 5.09544 11.4798 4.5397L10.846 5.44317C11.9292 5.77064 12.7191 6.79144 12.7191 7.99997C12.7191 8.63357 12.5023 9.21597 12.1398 9.6725L8.52867 7.46664L11.353 10.3424C10.9811 10.5493 10.5537 10.6666 10.1001 10.6666C9.2201 10.6666 8.44171 10.225 7.96714 9.54664L7.33333 10.4501C8.00486 11.2362 8.99486 11.7333 10.1001 11.7333C10.8439 11.7333 11.5374 11.5072 12.1157 11.1189L12.7191 11.7333L13.7668 10.6666L13.0439 10.225ZM8.52867 5.3333H9.57629V6.39997H8.52867V5.3333Z" fill="#FFDA2C"/>
</g>
</g>
<defs>
<clipPath id="clip0_2_3054">
<rect width="22" height="16" fill="white"/>
</clipPath>
<clipPath id="clip1_2_3054">
<rect width="22" height="16" rx="2" fill="white"/>
</clipPath>
</defs>
</svg>
