<svg width="22" height="16" viewBox="0 0 22 16" fill="none" xmlns="http://www.w3.org/2000/svg">
<g clip-path="url(#clip0_2_3025)">
<g clip-path="url(#clip1_2_3025)">
<rect width="22" height="16" rx="2" fill="#1A47B8"/>
<path d="M19.9048 0H2.09524C0.93807 0 0 0.955126 0 2.13333V13.8667C0 15.0449 0.93807 16 2.09524 16H19.9048C21.0619 16 22 15.0449 22 13.8667V2.13333C22 0.955126 21.0619 0 19.9048 0Z" fill="#1A47B8"/>
<path opacity="0.5" fill-rule="evenodd" clip-rule="evenodd" d="M4.19048 12.2667L5.23809 11.7333L5.7619 10.6667L6.28571 11.7333L7.33333 12.2667L6.28571 12.8L5.7619 13.8667L5.23809 12.8L4.19048 12.2667ZM14.6667 3.20001V4.26668H15.7143V3.20001H14.6667ZM17.8095 4.26668V5.33335H18.8571V4.26668H17.8095ZM13.619 6.40001V7.46668H14.6667V6.40001H13.619ZM16.7619 7.46668V8.53335H17.8095V7.46668H16.7619ZM15.7143 10.6667V11.7333H16.7619V10.6667H15.7143Z" fill="white"/>
<path d="M9.42857 1.06668H2.09524C1.51665 1.06668 1.04762 1.54424 1.04762 2.13335V7.46668C1.04762 8.05579 1.51665 8.53335 2.09524 8.53335H9.42857C10.0072 8.53335 10.4762 8.05579 10.4762 7.46668V2.13335C10.4762 1.54424 10.0072 1.06668 9.42857 1.06668Z" fill="white"/>
<path fill-rule="evenodd" clip-rule="evenodd" d="M5.2381 5.33333H2.09524V4.26666H5.2381V2.13333H6.28571V4.26666H9.42857V5.33333H6.28571V7.46666H5.2381V5.33333ZM7.85714 6.4V7.46666H9.42857V6.4H7.85714ZM7.85714 2.13333V3.2H9.42857V2.13333H7.85714ZM2.09524 6.4V7.46666H3.66667V6.4H2.09524ZM2.09524 2.13333V3.2H3.66667V2.13333H2.09524Z" fill="#F93939"/>
</g>
</g>
<defs>
<clipPath id="clip0_2_3025">
<rect width="22" height="16" fill="white"/>
</clipPath>
<clipPath id="clip1_2_3025">
<rect width="22" height="16" rx="2" fill="white"/>
</clipPath>
</defs>
</svg>
