<svg width="22" height="16" viewBox="0 0 22 16" fill="none" xmlns="http://www.w3.org/2000/svg">
<g clip-path="url(#clip0_2_2971)">
<g clip-path="url(#clip1_2_2971)">
<path d="M19.9048 0H2.09524C0.93807 0 0 0.955126 0 2.13333V13.8667C0 15.0449 0.93807 16 2.09524 16H19.9048C21.0619 16 22 15.0449 22 13.8667V2.13333C22 0.955126 21.0619 0 19.9048 0Z" fill="#FFDA2C"/>
<path fill-rule="evenodd" clip-rule="evenodd" d="M0 0H7V16H0V0ZM15 0H22V16H15V0Z" fill="#1A47B8"/>
<path fill-rule="evenodd" clip-rule="evenodd" d="M10.4762 10.6667H11.5238V11.7333H10.4762V10.6667ZM12.5714 8.53333H13.619V9.59999H12.5714V8.53333ZM8.38095 8.53333H9.42857V9.59999H8.38095V8.53333Z" fill="#AE6A3E"/>
<path fill-rule="evenodd" clip-rule="evenodd" d="M11.5238 8.53333V4.26666H10.4762V8.53333H9.42857V9.6H10.4762V10.6667H11.5238V9.6H12.5714V8.53333H11.5238ZM12.5714 5.33333H13.619V8.53333H12.5714V5.33333ZM8.38095 5.33333H9.42857V8.53333H8.38095V5.33333Z" fill="#151515"/>
</g>
</g>
<defs>
<clipPath id="clip0_2_2971">
<rect width="22" height="16" fill="white"/>
</clipPath>
<clipPath id="clip1_2_2971">
<rect width="22" height="16" rx="2" fill="white"/>
</clipPath>
</defs>
</svg>
