<svg width="22" height="16" viewBox="0 0 22 16" fill="none" xmlns="http://www.w3.org/2000/svg">
<g clip-path="url(#clip0_2_2923)">
<g clip-path="url(#clip1_2_2923)">
<path d="M19.9048 0H2.09524C0.93807 0 0 0.955126 0 2.13333V13.8667C0 15.0449 0.93807 16 2.09524 16H19.9048C21.0619 16 22 15.0449 22 13.8667V2.13333C22 0.955126 21.0619 0 19.9048 0Z" fill="#FFDA2C"/>
<path fill-rule="evenodd" clip-rule="evenodd" d="M9.42857 7.46666H10.4762V8.53333H9.42857V7.46666ZM11.5238 7.46666H12.5714V8.53333H11.5238V7.46666Z" fill="#03BCDB"/>
<path fill-rule="evenodd" clip-rule="evenodd" d="M12.5714 7.46666H13.619V9.59999H12.5714V7.46666ZM11.5238 6.39999H12.5714V7.46666H11.5238V6.39999ZM9.42857 6.39999H10.4762V7.46666H9.42857V6.39999ZM8.38095 7.46666H9.42857V9.59999H8.38095V7.46666Z" fill="#AF010D"/>
<path fill-rule="evenodd" clip-rule="evenodd" d="M10.4762 8.53334H11.5238V9.60001H10.4762V8.53334Z" fill="#249F58"/>
<path fill-rule="evenodd" clip-rule="evenodd" d="M10.4762 6.39999H11.5238V7.46666H10.4762V6.39999Z" fill="#151515"/>
<path fill-rule="evenodd" clip-rule="evenodd" d="M11.5238 8.53334H12.5714V9.60001H11.5238V8.53334ZM9.42857 8.53334H10.4762V9.60001H9.42857V8.53334Z" fill="#D4AF2C"/>
<path fill-rule="evenodd" clip-rule="evenodd" d="M10.4762 7.46666H11.5238V8.53333H10.4762V7.46666Z" fill="#249F58"/>
<path fill-rule="evenodd" clip-rule="evenodd" d="M0 10.6667H22V16H0V10.6667Z" fill="#249F58"/>
<path fill-rule="evenodd" clip-rule="evenodd" d="M0 0H22V5.33333H0V0Z" fill="#F93939"/>
</g>
</g>
<defs>
<clipPath id="clip0_2_2923">
<rect width="22" height="16" fill="white"/>
</clipPath>
<clipPath id="clip1_2_2923">
<rect width="22" height="16" rx="2" fill="white"/>
</clipPath>
</defs>
</svg>
