<svg width="22" height="16" viewBox="0 0 22 16" fill="none" xmlns="http://www.w3.org/2000/svg">
<g clip-path="url(#clip0_2_2917)">
<g clip-path="url(#clip1_2_2917)">
<rect width="22" height="16" rx="2" fill="#FFDA2C"/>
<path d="M19.9048 0H2.09524C0.93807 0 0 0.955126 0 2.13333V13.8667C0 15.0449 0.93807 16 2.09524 16H19.9048C21.0619 16 22 15.0449 22 13.8667V2.13333C22 0.955126 21.0619 0 19.9048 0Z" fill="#FFDA2C"/>
<path fill-rule="evenodd" clip-rule="evenodd" d="M0 0L22 14.9333L21.8711 16.1067L0 16V0Z" fill="#1A47B8"/>
<path fill-rule="evenodd" clip-rule="evenodd" d="M1.04762 3.2H2.09524V4.26666H1.04762V3.2ZM4.19048 5.33333H5.2381V6.4H4.19048V5.33333ZM7.33334 7.46666H8.38096V8.53333H7.33334V7.46666ZM10.4762 9.6H11.5238V10.6667H10.4762V9.6ZM13.6191 11.7333H14.6667V12.8H13.6191V11.7333ZM16.7619 13.8667H17.8095V14.9333H16.7619V13.8667Z" fill="white"/>
</g>
</g>
<defs>
<clipPath id="clip0_2_2917">
<rect width="22" height="16" fill="white"/>
</clipPath>
<clipPath id="clip1_2_2917">
<rect width="22" height="16" rx="2" fill="white"/>
</clipPath>
</defs>
</svg>
