<svg width="22" height="16" viewBox="0 0 22 16" fill="none" xmlns="http://www.w3.org/2000/svg">
<g clip-path="url(#clip0_2_2880)">
<g clip-path="url(#clip1_2_2880)">
<rect width="22" height="16" rx="2" fill="#F93939"/>
<path d="M19.9048 0H2.09524C0.93807 0 0 0.955126 0 2.13333V13.8667C0 15.0449 0.93807 16 2.09524 16H19.9048C21.0619 16 22 15.0449 22 13.8667V2.13333C22 0.955126 21.0619 0 19.9048 0Z" fill="#F93939"/>
<path fill-rule="evenodd" clip-rule="evenodd" d="M0 8H22V16H0V8Z" fill="#249F58"/>
<path fill-rule="evenodd" clip-rule="evenodd" d="M11 9.86666L8.84505 11.0208L9.25676 8.57813L7.51143 6.8448L9.92095 6.48853L11 4.26666L12.079 6.4896L14.4886 6.84586L12.7432 8.57706L13.155 11.0219" fill="#FFDA2C"/>
</g>
</g>
<defs>
<clipPath id="clip0_2_2880">
<rect width="22" height="16" fill="white"/>
</clipPath>
<clipPath id="clip1_2_2880">
<rect width="22" height="16" rx="2" fill="white"/>
</clipPath>
</defs>
</svg>
