<svg width="22" height="16" viewBox="0 0 22 16" fill="none" xmlns="http://www.w3.org/2000/svg">
<g clip-path="url(#clip0_2_2866)">
<g clip-path="url(#clip1_2_2866)">
<rect width="22" height="16" rx="2" fill="#F93939"/>
<path fill-rule="evenodd" clip-rule="evenodd" d="M8.38096 5.33333H8.90477L9.42858 6.39999H8.38096V5.33333ZM9.42858 6.39999H10.4762V7.46666H9.42858V6.39999ZM8.38096 7.46666H9.42858V8.53333H8.38096V7.46666ZM7.33334 8.53333H8.38096V9.6H7.33334V8.53333ZM7.33334 9.6H8.38096V10.6667H7.33334V9.6ZM6.80953 9.6H7.33334V10.6667H6.28572L6.80953 9.6ZM9.42858 8.53333H11.5238V10.6667H9.42858V8.53333ZM13.6191 5.33333H13.0952L12.5714 6.39999H13.6191V5.33333ZM12.5714 6.39999H11.5238V7.46666H12.5714V6.39999ZM13.6191 7.46666H12.5714V8.53333H13.6191V7.46666ZM14.6667 8.53333H13.6191V9.6H14.6667V8.53333ZM14.6667 9.6H13.6191V10.6667H14.6667V9.6ZM15.1905 9.6H14.6667V10.6667H15.7143L15.1905 9.6ZM12.5714 8.53333H11.5238V10.6667H12.5714V8.53333Z" fill="white"/>
<path opacity="0.7" fill-rule="evenodd" clip-rule="evenodd" d="M9.42857 7.46666H10.4762V8.53333H9.42857V7.46666ZM8.38095 8.53333H9.42857V10.6667H8.38095V8.53333ZM8.38095 6.39999H9.42857V7.46666H8.38095V6.39999ZM7.85714 7.46666H8.38095V8.53333H7.33333L7.85714 7.46666ZM12.5714 7.46666H11.5238V8.53333H12.5714V7.46666ZM13.619 8.53333H12.5714V10.6667H13.619V8.53333ZM13.619 6.39999H12.5714V7.46666H13.619V6.39999ZM14.1429 7.46666H13.619V8.53333H14.6667L14.1429 7.46666ZM11.5238 6.39999H10.4762V8.53333H11.5238V6.39999Z" fill="white"/>
<path opacity="0.7" fill-rule="evenodd" clip-rule="evenodd" d="M10.4762 5.33333H11.5238V6.39999H10.4762V5.33333Z" fill="white"/>
<path fill-rule="evenodd" clip-rule="evenodd" d="M0 0H22V4H0V0ZM0 12H22V16H0V12Z" fill="#232C80"/>
</g>
</g>
<defs>
<clipPath id="clip0_2_2866">
<rect width="22" height="16" fill="white"/>
</clipPath>
<clipPath id="clip1_2_2866">
<rect width="22" height="16" rx="2" fill="white"/>
</clipPath>
</defs>
</svg>
