<svg width="22" height="16" viewBox="0 0 22 16" fill="none" xmlns="http://www.w3.org/2000/svg">
<g clip-path="url(#clip0_2_2836)">
<g clip-path="url(#clip1_2_2836)">
<path d="M19.9048 0H2.09524C0.93807 0 0 0.955126 0 2.13333V13.8667C0 15.0449 0.93807 16 2.09524 16H19.9048C21.0619 16 22 15.0449 22 13.8667V2.13333C22 0.955126 21.0619 0 19.9048 0Z" fill="white"/>
<path fill-rule="evenodd" clip-rule="evenodd" d="M0 11H22V16H0V11Z" fill="#FFDA2C"/>
<path fill-rule="evenodd" clip-rule="evenodd" d="M0 9H22V12H0V9Z" fill="#249F58"/>
<path fill-rule="evenodd" clip-rule="evenodd" d="M0 0H22V6H0V0Z" fill="#1A47B8"/>
<path fill-rule="evenodd" clip-rule="evenodd" d="M3.14286 2.13333H4.19048V3.2H3.14286V2.13333Z" fill="#FFDA2C"/>
<path fill-rule="evenodd" clip-rule="evenodd" d="M2.09524 2.13333H3.14286V3.2H2.09524V2.13333ZM4.19048 2.13333H5.23809V3.2H4.19048V2.13333ZM3.14286 3.2H4.19048V4.26667H3.14286V3.2ZM3.14286 1.06667H4.19048V2.13333H3.14286V1.06667Z" fill="#D4AF2C"/>
<path fill-rule="evenodd" clip-rule="evenodd" d="M9 0H13V16H9V0Z" fill="#F93939"/>
</g>
</g>
<defs>
<clipPath id="clip0_2_2836">
<rect width="22" height="16" fill="white"/>
</clipPath>
<clipPath id="clip1_2_2836">
<rect width="22" height="16" rx="2" fill="white"/>
</clipPath>
</defs>
</svg>
