<svg width="22" height="16" viewBox="0 0 22 16" fill="none" xmlns="http://www.w3.org/2000/svg">
<g clip-path="url(#clip0_2_2771)">
<rect width="22" height="16" rx="2" fill="#1A47B8"/>
<path fill-rule="evenodd" clip-rule="evenodd" d="M5.23809 5.33333H4.70945C4.4165 5.33333 4.19048 5.57211 4.19048 5.86666C4.19048 6.1526 4.42283 6.4 4.70945 6.4H5.23809V6.93825C5.23809 7.23653 5.47261 7.46666 5.7619 7.46666C6.04274 7.46666 6.28571 7.23008 6.28571 6.93825V6.4H6.81435C7.10731 6.4 7.33333 6.16122 7.33333 5.86666C7.33333 5.58073 7.10098 5.33333 6.81435 5.33333H6.28571V4.79508C6.28571 4.4968 6.0512 4.26666 5.7619 4.26666C5.48107 4.26666 5.23809 4.50324 5.23809 4.79508V5.33333ZM3.14286 3.2H4.19048V4.26666H3.14286V3.2Z" fill="white"/>
<path d="M22 10H0V12H22V10Z" fill="#FFDA2C"/>
</g>
<defs>
<clipPath id="clip0_2_2771">
<rect width="22" height="16" fill="white"/>
</clipPath>
</defs>
</svg>
