<svg width="22" height="16" viewBox="0 0 22 16" fill="none" xmlns="http://www.w3.org/2000/svg">
<g clip-path="url(#clip0_2_2713)">
<g clip-path="url(#clip1_2_2713)">
<path d="M19.9048 0H2.09524C0.93807 0 0 0.955126 0 2.13333V13.8667C0 15.0449 0.93807 16 2.09524 16H19.9048C21.0619 16 22 15.0449 22 13.8667V2.13333C22 0.955126 21.0619 0 19.9048 0Z" fill="#1A47B8"/>
<path fill-rule="evenodd" clip-rule="evenodd" d="M0 12H22V16H0V12Z" fill="#F93939"/>
<path fill-rule="evenodd" clip-rule="evenodd" d="M0 0H22V8H0V0Z" fill="#FFDA2C"/>
<path fill-rule="evenodd" clip-rule="evenodd" d="M6.28571 4.26666H9.42857L11 5.33333L12.5714 4.26666H15.7143L12.5714 5.33333L11.5238 6.4H10.4762L9.42857 5.33333L6.28571 4.26666Z" fill="#151515"/>
<path d="M11 10.6667C11.8679 10.6667 12.5714 9.71154 12.5714 8.53333C12.5714 7.35513 11.8679 6.4 11 6.4C10.1321 6.4 9.42857 7.35513 9.42857 8.53333C9.42857 9.71154 10.1321 10.6667 11 10.6667Z" fill="#3ECBF8"/>
<path fill-rule="evenodd" clip-rule="evenodd" d="M8.38095 7.46667V9.6L10.4762 10.6667H11.5238L13.6191 9.6V7.46667L14.6667 9.6L13.6191 10.6667L11.5238 11.7333H10.4762L8.38095 10.6667L7.33334 9.6L8.38095 7.46667Z" fill="#FFDA2C"/>
</g>
</g>
<defs>
<clipPath id="clip0_2_2713">
<rect width="22" height="16" fill="white"/>
</clipPath>
<clipPath id="clip1_2_2713">
<rect width="22" height="16" rx="2" fill="white"/>
</clipPath>
</defs>
</svg>
