<svg width="22" height="16" viewBox="0 0 22 16" fill="none" xmlns="http://www.w3.org/2000/svg">
<g clip-path="url(#clip0_2_2699)">
<g clip-path="url(#clip1_2_2699)">
<rect width="22" height="16" rx="2" fill="white"/>
<path fill-rule="evenodd" clip-rule="evenodd" d="M0 11H22V16H0V11ZM0 0H22V5H0V0Z" fill="#1A47B8"/>
<path d="M11 9.6C11.8679 9.6 12.5714 8.88366 12.5714 8C12.5714 7.11635 11.8679 6.4 11 6.4C10.1321 6.4 9.42857 7.11635 9.42857 8C9.42857 8.88366 10.1321 9.6 11 9.6Z" fill="#1A47B8"/>
<path d="M11 8.53333C11.2893 8.53333 11.5238 8.29455 11.5238 8C11.5238 7.70545 11.2893 7.46667 11 7.46667C10.7107 7.46667 10.4762 7.70545 10.4762 8C10.4762 8.29455 10.7107 8.53333 11 8.53333Z" fill="#FFDA2C"/>
<path fill-rule="evenodd" clip-rule="evenodd" d="M8.38095 7.46667L9.42857 8.53333L11 9.6L12.5714 8.53333L13.619 7.46667L12.5714 9.6H9.42857L8.38095 7.46667Z" fill="#249F58"/>
</g>
</g>
<defs>
<clipPath id="clip0_2_2699">
<rect width="22" height="16" fill="white"/>
</clipPath>
<clipPath id="clip1_2_2699">
<rect width="22" height="16" rx="2" fill="white"/>
</clipPath>
</defs>
</svg>
