<svg width="22" height="16" viewBox="0 0 22 16" fill="none" xmlns="http://www.w3.org/2000/svg">
<g clip-path="url(#clip0_2_2689)">
<g clip-path="url(#clip1_2_2689)">
<rect width="22" height="16" rx="2" fill="white"/>
<path fill-rule="evenodd" clip-rule="evenodd" d="M0 11H22V16H0V11Z" fill="#F93939"/>
<path fill-rule="evenodd" clip-rule="evenodd" d="M0 0H22V5H0V0Z" fill="#00B731"/>
<path fill-rule="evenodd" clip-rule="evenodd" d="M11 7.46667C11.2891 7.46667 11.5238 7.22773 11.5238 6.93333C11.5238 6.63893 11.2891 6.4 11 6.4C10.7109 6.4 10.4762 6.63893 10.4762 6.93333C10.4762 7.22773 10.7109 7.46667 11 7.46667ZM13.0952 7.46667C13.3844 7.46667 13.619 7.22773 13.619 6.93333C13.619 6.63893 13.3844 6.4 13.0952 6.4C12.8061 6.4 12.5714 6.63893 12.5714 6.93333C12.5714 7.22773 12.8061 7.46667 13.0952 7.46667ZM15.1905 7.46667C15.4796 7.46667 15.7143 7.22773 15.7143 6.93333C15.7143 6.63893 15.4796 6.4 15.1905 6.4C14.9013 6.4 14.6667 6.63893 14.6667 6.93333C14.6667 7.22773 14.9013 7.46667 15.1905 7.46667Z" fill="#FFDA2C"/>
<path fill-rule="evenodd" clip-rule="evenodd" d="M12.0476 8.53333C12.3368 8.53333 12.5714 8.2944 12.5714 8C12.5714 7.7056 12.3368 7.46667 12.0476 7.46667C11.7585 7.46667 11.5238 7.7056 11.5238 8C11.5238 8.2944 11.7585 8.53333 12.0476 8.53333ZM14.1429 8.53333C14.432 8.53333 14.6667 8.2944 14.6667 8C14.6667 7.7056 14.432 7.46667 14.1429 7.46667C13.8537 7.46667 13.619 7.7056 13.619 8C13.619 8.2944 13.8537 8.53333 14.1429 8.53333Z" fill="#00B731"/>
<path fill-rule="evenodd" clip-rule="evenodd" d="M12.5714 7.46667H13.619V9.6H12.5714V7.46667Z" fill="#AE6A3E"/>
<path fill-rule="evenodd" clip-rule="evenodd" d="M0 0V16.0352L7.33333 8L0 0Z" fill="#3A99FF"/>
</g>
</g>
<defs>
<clipPath id="clip0_2_2689">
<rect width="22" height="16" fill="white"/>
</clipPath>
<clipPath id="clip1_2_2689">
<rect width="22" height="16" rx="2" fill="white"/>
</clipPath>
</defs>
</svg>
