<svg width="22" height="16" viewBox="0 0 22 16" fill="none" xmlns="http://www.w3.org/2000/svg">
<g clip-path="url(#clip0_2_2657)">
<g clip-path="url(#clip1_2_2657)">
<path d="M19.9048 0H2.09524C0.93807 0 0 0.955126 0 2.13333V13.8667C0 15.0449 0.93807 16 2.09524 16H19.9048C21.0619 16 22 15.0449 22 13.8667V2.13333C22 0.955126 21.0619 0 19.9048 0Z" fill="#FFDA2C"/>
<path fill-rule="evenodd" clip-rule="evenodd" d="M0 10.6667H22V16H0V10.6667Z" fill="#F93939"/>
<path fill-rule="evenodd" clip-rule="evenodd" d="M0 0H22V5.33333H0V0Z" fill="#249F58"/>
<path d="M11 12.8C13.6036 12.8 15.7143 10.651 15.7143 8C15.7143 5.34903 13.6036 3.2 11 3.2C8.39638 3.2 6.28572 5.34903 6.28572 8C6.28572 10.651 8.39638 12.8 11 12.8Z" fill="#1A47B8"/>
<path fill-rule="evenodd" clip-rule="evenodd" d="M10.998 9.33336L9.45803 10.1579L9.75136 8.41176L8.50679 7.17442L10.228 6.92162L10.998 5.33229L11.767 6.92162L13.4882 7.17442L12.2416 8.41176L12.537 10.1568" fill="#FFDA2C"/>
</g>
</g>
<defs>
<clipPath id="clip0_2_2657">
<rect width="22" height="16" fill="white"/>
</clipPath>
<clipPath id="clip1_2_2657">
<rect width="22" height="16" rx="2" fill="white"/>
</clipPath>
</defs>
</svg>
