<svg width="22" height="16" viewBox="0 0 22 16" fill="none" xmlns="http://www.w3.org/2000/svg">
<g clip-path="url(#clip0_2_2597)">
<rect width="22" height="16" rx="2" fill="#F93939"/>
<path fill-rule="evenodd" clip-rule="evenodd" d="M3.14285 3.2H18.8571V12.8H3.14285V3.2Z" fill="#FFDA2C"/>
<path fill-rule="evenodd" clip-rule="evenodd" d="M3.14285 3.2L11 8L3.14285 12.8V3.2Z" fill="#249F58"/>
<path fill-rule="evenodd" clip-rule="evenodd" d="M4.19048 7.46667H5.23809V8.53333H4.19048V7.46667Z" fill="#FFDA2C"/>
<path fill-rule="evenodd" clip-rule="evenodd" d="M18.8571 3.2L11 8L18.8571 12.8V3.2Z" fill="#249F58"/>
<path fill-rule="evenodd" clip-rule="evenodd" d="M7.33333 1.06667H8.38095V2.13333H7.33333V1.06667ZM10.4762 1.06667H11.5238V2.13333H10.4762V1.06667ZM13.619 1.06667H14.6667V2.13333H13.619V1.06667ZM7.33333 13.8667H8.38095V14.9333H7.33333V13.8667ZM10.4762 13.8667H11.5238V14.9333H10.4762V13.8667ZM13.619 13.8667H14.6667V14.9333H13.619V13.8667Z" fill="#FFDA2C"/>
<path d="M11 10.6667C12.4465 10.6667 13.619 9.47276 13.619 8C13.619 6.52724 12.4465 5.33334 11 5.33334C9.55354 5.33334 8.38095 6.52724 8.38095 8C8.38095 9.47276 9.55354 10.6667 11 10.6667Z" fill="#F93939"/>
<path fill-rule="evenodd" clip-rule="evenodd" d="M11 9.33334L9.46 10.1579L9.75333 8.41174L8.50876 7.1744L10.23 6.9216L11 5.33334L11.77 6.92267L13.4912 7.17547L12.2446 8.4128L12.5379 10.1579" fill="#FFDA2C"/>
</g>
<defs>
<clipPath id="clip0_2_2597">
<rect width="22" height="16" fill="white"/>
</clipPath>
</defs>
</svg>
