<svg width="22" height="16" viewBox="0 0 22 16" fill="none" xmlns="http://www.w3.org/2000/svg">
<g clip-path="url(#clip0_2_2577)">
<g clip-path="url(#clip1_2_2577)">
<rect width="22" height="16" rx="2" fill="#FFDA2C"/>
<path d="M19.9048 0H2.09524C0.93807 0 0 0.955126 0 2.13333V13.8667C0 15.0449 0.93807 16 2.09524 16H19.9048C21.0619 16 22 15.0449 22 13.8667V2.13333C22 0.955126 21.0619 0 19.9048 0Z" fill="#FFDA2C"/>
<path fill-rule="evenodd" clip-rule="evenodd" d="M0 8H22V16H0V8Z" fill="#249F58"/>
<path fill-rule="evenodd" clip-rule="evenodd" d="M0 0H9V16H0V0Z" fill="#F93939"/>
<path fill-rule="evenodd" clip-rule="evenodd" d="M4.49124 9.33325L2.95124 10.1578L3.24457 8.41165L2 7.17432L3.72124 6.92152L4.49124 5.33325L5.26124 6.92259L6.98248 7.17539L5.73581 8.41272L6.02914 10.1578" fill="#151515"/>
</g>
</g>
<defs>
<clipPath id="clip0_2_2577">
<rect width="22" height="16" fill="white"/>
</clipPath>
<clipPath id="clip1_2_2577">
<rect width="22" height="16" rx="2" fill="white"/>
</clipPath>
</defs>
</svg>
