<svg width="22" height="16" viewBox="0 0 22 16" fill="none" xmlns="http://www.w3.org/2000/svg">
<g clip-path="url(#clip0_2_2513)">
<g clip-path="url(#clip1_2_2513)">
<rect width="22" height="16" rx="2" fill="white"/>
<path fill-rule="evenodd" clip-rule="evenodd" d="M11 9.6C12.4457 9.6 13.619 8.8832 13.619 8C13.619 7.1168 12.4457 6.4 11 6.4C9.55428 6.4 8.38095 7.1168 8.38095 8C8.38095 8.8832 9.55428 9.6 11 9.6ZM11 8.8C11.8674 8.8 12.5714 8.2624 12.5714 7.6C12.5714 6.93867 11.8674 6.4 11 6.4C10.1326 6.4 9.42857 6.9376 9.42857 7.6C9.42857 8.26133 10.1326 8.8 11 8.8Z" fill="#F93939"/>
<path d="M11 8.53333C11.2893 8.53333 11.5238 8.05577 11.5238 7.46667C11.5238 6.87756 11.2893 6.4 11 6.4C10.7107 6.4 10.4762 6.87756 10.4762 7.46667C10.4762 8.05577 10.7107 8.53333 11 8.53333Z" fill="#AF010D"/>
<path fill-rule="evenodd" clip-rule="evenodd" d="M0 11H22V16H0V11Z" fill="#F93939"/>
<path fill-rule="evenodd" clip-rule="evenodd" d="M0 0H22V5H0V0Z" fill="#00B731"/>
</g>
</g>
<defs>
<clipPath id="clip0_2_2513">
<rect width="22" height="16" fill="white"/>
</clipPath>
<clipPath id="clip1_2_2513">
<rect width="22" height="16" rx="2" fill="white"/>
</clipPath>
</defs>
</svg>
