<svg width="26" height="17" viewBox="0 0 26 17" fill="none" xmlns="http://www.w3.org/2000/svg">
<g clip-path="url(#clip0_40_60013)">
<g clip-path="url(#clip1_40_60013)">
<path d="M25.5984 16.7467H0.252268C0.0023161 16.7467 -0.200363 16.544 -0.200363 16.294V7.09891e-05C-0.200363 -0.249881 0.0023161 -0.45256 0.252268 -0.45256H25.5985C25.8484 -0.45256 26.0511 -0.249881 26.0511 7.09891e-05V16.294C26.051 16.544 25.8484 16.7467 25.5984 16.7467Z" fill="white"/>
<path d="M15.4379 4.38022C13.3582 2.99376 10.5491 3.56058 9.16356 5.6367C8.46856 6.67296 8.75107 8.08105 9.79087 8.7743C10.8299 9.46755 12.2335 9.18602 12.9267 8.14611C13.62 7.10626 15.0245 6.82821 16.0635 7.51782C17.1042 8.21108 17.3841 9.61917 16.6899 10.6554C18.0764 8.57583 17.5159 5.76672 15.4379 4.38022Z" fill="#FF4B55"/>
<path d="M9.16363 5.63673C8.46863 6.673 8.75114 8.08109 9.79094 8.77434C10.83 9.46759 12.2336 9.18606 12.9268 8.14615C13.6201 7.1063 15.0246 6.82825 16.0635 7.51786C17.1043 8.21111 17.3842 9.6192 16.6899 10.6555C15.3053 12.7388 12.4971 13.2985 10.4174 11.912C8.33953 10.5256 7.77717 7.71649 9.16363 5.63673Z" fill="#41479B"/>
<path d="M17.7414 2.67077L18.5636 3.90653C18.6326 4.01036 18.6047 4.15054 18.5011 4.21991L18.2926 4.35952C18.1886 4.42915 18.0478 4.40116 17.9784 4.29697L17.1552 3.06152C17.0859 2.95759 17.114 2.81715 17.2179 2.74778L17.4274 2.60791C17.5315 2.53844 17.6721 2.56658 17.7414 2.67077Z" fill="#464655"/>
<path d="M19.0102 4.57609L19.835 5.81108C19.9046 5.91537 19.8762 6.05647 19.7716 6.12559L19.5622 6.26397C19.4583 6.33268 19.3184 6.30443 19.2493 6.20091L18.4249 4.96719C18.3555 4.86332 18.3834 4.72278 18.4873 4.6533L18.6962 4.51364C18.8001 4.44417 18.9407 4.47211 19.0102 4.57609Z" fill="#464655"/>
<path d="M18.6218 2.08328L20.7152 5.22488C20.7845 5.32886 20.7564 5.46935 20.6524 5.53867L20.4421 5.67884C20.3381 5.74822 20.1976 5.72007 20.1282 5.61609L18.0341 2.47469C17.9648 2.37066 17.993 2.23007 18.097 2.1608L18.308 2.02036C18.4121 1.9512 18.5525 1.9793 18.6218 2.08328Z" fill="#464655"/>
<path d="M19.4998 1.49672L20.3238 2.7349C20.3932 2.83918 20.3647 2.97998 20.2601 3.04904L20.0506 3.18748C19.9467 3.25618 19.8067 3.22793 19.7376 3.12421L18.9131 1.88767C18.8437 1.78369 18.8718 1.64316 18.9758 1.57384L19.186 1.43376C19.2899 1.36439 19.4305 1.39254 19.4998 1.49672Z" fill="#464655"/>
<path d="M20.7692 3.40606L21.5918 4.64167C21.6611 4.74554 21.633 4.88583 21.5293 4.9552L21.3203 5.09486C21.2163 5.16444 21.0755 5.13634 21.0062 5.03216L20.1835 3.79655C20.1144 3.69267 20.1424 3.55239 20.2461 3.48302L20.455 3.34335C20.559 3.27378 20.6998 3.30182 20.7692 3.40606Z" fill="#464655"/>
<path d="M6.60523 10.0946L8.69837 13.2328C8.76769 13.3367 8.73969 13.4772 8.63571 13.5466L8.42611 13.6866C8.32213 13.756 8.18159 13.7279 8.11217 13.6239L6.01903 10.4857C5.94971 10.3818 5.97771 10.2413 6.08169 10.1719L6.29129 10.0319C6.39527 9.9625 6.53586 9.9906 6.60523 10.0946Z" fill="#464655"/>
<path d="M5.72669 10.6816L6.54848 11.9142C6.61775 12.0181 6.58981 12.1583 6.48608 12.2278L6.27761 12.3674C6.17368 12.437 6.03299 12.409 5.96352 12.305L5.14075 11.0726C5.07133 10.9687 5.09932 10.8282 5.2033 10.7588L5.4128 10.6189C5.51673 10.5495 5.65732 10.5776 5.72669 10.6816Z" fill="#464655"/>
<path d="M6.99652 12.5876L7.81923 13.8234C7.88845 13.9272 7.8604 14.0676 7.75658 14.1369L7.54749 14.2767C7.44346 14.3462 7.30282 14.3181 7.23339 14.2141L6.41017 12.9785C6.3409 12.8746 6.36899 12.7342 6.47282 12.6648L6.68242 12.5248C6.7865 12.4553 6.92714 12.4835 6.99652 12.5876Z" fill="#464655"/>
<path d="M4.84783 11.2684L6.93964 14.4068C7.00891 14.5107 6.98086 14.6511 6.87714 14.7205L6.6681 14.8602C6.56412 14.9298 6.42348 14.9018 6.35406 14.7977L4.26102 11.6597C4.19165 11.5557 4.2198 11.4152 4.32378 11.3458L4.53409 11.2057C4.63797 11.1363 4.77851 11.1644 4.84783 11.2684Z" fill="#464655"/>
<path d="M6.01951 5.8113L8.11234 2.67051C8.18171 2.56643 8.3223 2.53833 8.42633 2.60776L8.63588 2.74768C8.73981 2.81705 8.76781 2.95753 8.69854 3.06146L6.60489 6.2005C6.53567 6.30423 6.39564 6.33243 6.29172 6.26362L6.08299 6.12544C5.97849 6.05633 5.95009 5.91548 6.01951 5.8113Z" fill="#464655"/>
<path d="M5.14035 5.22508L7.23354 2.08368C7.30291 1.9796 7.4436 1.9515 7.54763 2.02103L7.75667 2.16079C7.86045 2.23016 7.88844 2.37045 7.81922 2.47437L5.7266 5.61593C5.65723 5.72001 5.51664 5.74816 5.41261 5.67869L5.20301 5.53876C5.09913 5.46944 5.07108 5.32901 5.14035 5.22508Z" fill="#464655"/>
<path d="M4.26061 4.64165L6.354 1.49712C6.42338 1.39299 6.56412 1.36484 6.66815 1.43437L6.87719 1.57414C6.98096 1.64351 7.00896 1.78368 6.93984 1.88761L4.84773 5.0326C4.77846 5.13674 4.63782 5.16493 4.53379 5.09556L4.32347 4.95538C4.21954 4.88606 4.19144 4.74563 4.26061 4.64165Z" fill="#464655"/>
<path d="M17.1556 13.2328L17.9784 12.0005C18.0478 11.8964 18.1885 11.8685 18.2925 11.9381L18.5009 12.0777C18.6047 12.1471 18.6326 12.2874 18.5633 12.3913L17.7415 13.6239C17.6722 13.7279 17.5316 13.756 17.4276 13.6866L17.2181 13.5467C17.1142 13.4773 17.0862 13.3368 17.1556 13.2328Z" fill="#464655"/>
<path d="M18.4247 11.3333L19.2488 10.0948C19.3181 9.99075 19.4587 9.96255 19.5627 10.0319L19.7727 10.1719C19.8767 10.2413 19.9048 10.3819 19.8354 10.4859L19.0096 11.7224C18.9403 11.8261 18.8003 11.8542 18.6964 11.7853L18.4881 11.6473C18.3837 11.5781 18.3553 11.4374 18.4247 11.3333Z" fill="#464655"/>
<path d="M18.0341 13.8229L18.8574 12.5873C18.9267 12.4833 19.0672 12.4551 19.1713 12.5245L19.3817 12.6648C19.4856 12.7342 19.5137 12.8745 19.4445 12.9786L18.6217 14.2142C18.5525 14.3183 18.412 14.3465 18.3079 14.2772L18.097 14.1368C17.993 14.0675 17.9648 13.9269 18.0341 13.8229Z" fill="#464655"/>
<path d="M19.3047 11.9138L20.1284 10.6811C20.1978 10.5773 20.3382 10.5493 20.4421 10.6185L20.6525 10.7587C20.7565 10.8281 20.7846 10.9687 20.7151 11.0727L19.8914 12.3054C19.822 12.4092 19.6816 12.4372 19.5777 12.3679L19.3673 12.2278C19.2632 12.1585 19.2352 12.0178 19.3047 11.9138Z" fill="#464655"/>
<path d="M18.9132 14.4065L19.7374 13.1731C19.8066 13.0696 19.9465 13.0414 20.0503 13.11L20.2598 13.2485C20.3644 13.3176 20.3929 13.4585 20.3234 13.5628L19.4998 14.7979C19.4304 14.9019 19.2899 14.9299 19.1859 14.8606L18.9758 14.7206C18.8717 14.6511 18.8437 14.5105 18.9132 14.4065Z" fill="#464655"/>
<path d="M20.1838 12.5037L21.006 11.2688C21.0754 11.1647 21.2161 11.1365 21.3201 11.2061L21.5289 11.3457C21.6327 11.4151 21.6607 11.5555 21.5914 11.6594L20.7685 12.8927C20.6993 12.9964 20.5591 13.0246 20.4552 12.9557L20.2471 12.8177C20.1428 12.7486 20.1145 12.6079 20.1838 12.5037Z" fill="#464655"/>
</g>
</g>
<defs>
<clipPath id="clip0_40_60013">
<rect width="26" height="16.25" rx="2" fill="white"/>
</clipPath>
<clipPath id="clip1_40_60013">
<rect width="26.2514" height="26.2514" fill="white" transform="translate(-0.201157 -4.97871)"/>
</clipPath>
</defs>
</svg>
