<svg width="22" height="16" viewBox="0 0 22 16" fill="none" xmlns="http://www.w3.org/2000/svg">
<g clip-path="url(#clip0_2_2361)">
<rect width="22" height="16" rx="2" fill="white"/>
<rect width="22" height="1.14872" fill="#AF010D"/>
<rect y="2.29744" width="22" height="1.14872" fill="#AF010D"/>
<rect y="4.59487" width="22" height="1.14872" fill="#AF010D"/>
<rect y="6.89231" width="22" height="1.14872" fill="#AF010D"/>
<rect y="9.18974" width="22" height="1.14872" fill="#AF010D"/>
<rect y="11.4872" width="22" height="1.14872" fill="#AF010D"/>
<rect y="13.7846" width="22" height="1.14872" fill="#AF010D"/>
<path fill-rule="evenodd" clip-rule="evenodd" d="M0 0H11.5238V9.19467H0V0Z" fill="#1A47B8"/>
<path fill-rule="evenodd" clip-rule="evenodd" d="M7.33333 4.26667H8.38095V5.33333H7.33333V4.26667Z" fill="#FFDA2C"/>
<path fill-rule="evenodd" clip-rule="evenodd" d="M7.85714 6.4C7.37942 7.04747 6.61885 7.46667 5.7619 7.46667C4.31619 7.46667 3.14285 6.272 3.14285 4.8C3.14285 3.328 4.31619 2.13333 5.7619 2.13333C6.61885 2.13333 7.37942 2.55253 7.85714 3.2H6.28571C5.41828 3.2 4.71428 3.9168 4.71428 4.8C4.71428 5.6832 5.41828 6.4 6.28571 6.4H7.85714Z" fill="#FFDA2C"/>
</g>
<defs>
<clipPath id="clip0_2_2361">
<rect width="22" height="16" fill="white"/>
</clipPath>
</defs>
</svg>
