<svg width="22" height="16" viewBox="0 0 22 16" fill="none" xmlns="http://www.w3.org/2000/svg">
<g clip-path="url(#clip0_2_2333)">
<g clip-path="url(#clip1_2_2333)">
<rect width="22" height="16" rx="2" fill="#249F58"/>
<path fill-rule="evenodd" clip-rule="evenodd" d="M10.998 7.73336L9.45803 8.55789L9.75136 6.81176L8.50679 5.57443L10.228 5.32163L10.998 3.73229L11.767 5.32163L13.4882 5.57443L12.2416 6.81176L12.537 8.55683" fill="#FFDA2C"/>
<path fill-rule="evenodd" clip-rule="evenodd" d="M15.6776 6.33388C15.7017 6.53015 15.7143 6.73068 15.7143 6.93335C15.7143 9.58401 13.6033 11.7333 11 11.7333C8.39667 11.7333 6.28571 9.58401 6.28571 6.93335C6.28571 6.73068 6.29828 6.53015 6.32238 6.33281C6.61257 8.17601 8.59571 9.60001 11 9.60001C13.4043 9.60001 15.3874 8.17495 15.6776 6.33281V6.33388Z" fill="#FFDA2C"/>
<rect width="22" height="2.13333" fill="#AF010D"/>
<rect y="13.8667" width="22" height="2.13333" fill="#AF010D"/>
</g>
</g>
<defs>
<clipPath id="clip0_2_2333">
<rect width="22" height="16" fill="white"/>
</clipPath>
<clipPath id="clip1_2_2333">
<rect width="22" height="16" rx="2" fill="white"/>
</clipPath>
</defs>
</svg>
