<svg width="22" height="16" viewBox="0 0 22 16" fill="none" xmlns="http://www.w3.org/2000/svg">
<g clip-path="url(#clip0_2_2285)">
<rect width="22" height="16" rx="2" fill="#D4AF2C"/>
<rect x="1.04762" y="1.06667" width="19.9048" height="13.8667" fill="#AF010D"/>
<path fill-rule="evenodd" clip-rule="evenodd" d="M11 5.09653L9.77742 4.26667L8.96342 5.09653H9.77742L8.96342 5.9264L7.33333 5.09653V9.24587L9.77742 8.41387L8.96342 10.0736H8.14838L8.96342 10.9035L9.77742 10.0736L11 11.7333V5.09653ZM12.2226 4.26667L13.0366 5.09653H12.2226L13.0366 5.9264L14.6667 5.09653V9.24587L12.2226 8.41387L13.0366 10.0736H13.8516L13.0366 10.9035L12.2226 10.0736L11 11.7333V5.09653L12.2226 4.26667Z" fill="#D4AF2C"/>
<path fill-rule="evenodd" clip-rule="evenodd" d="M9.42857 6.93867C9.42857 6.05333 10.1263 5.33333 11 5.33333C11.8674 5.33333 12.5714 6.0512 12.5714 6.93867V6.5728C12.5714 7.45813 12.0392 8.6592 11.3981 9.2416L11 9.6L10.6019 9.2416C9.95553 8.65493 9.42857 7.46027 9.42857 6.5728V6.93867Z" fill="#1A47B8"/>
<path fill-rule="evenodd" clip-rule="evenodd" d="M9.42857 6.4H12.5714V7.46667H9.42857V6.4Z" fill="#AE6A3E"/>
</g>
<defs>
<clipPath id="clip0_2_2285">
<rect width="22" height="16" fill="white"/>
</clipPath>
</defs>
</svg>
