<svg width="22" height="16" viewBox="0 0 22 16" fill="none" xmlns="http://www.w3.org/2000/svg">
<g clip-path="url(#clip0_2_2205)">
<rect width="22" height="16" rx="2" fill="#1A47B8"/>
<path fill-rule="evenodd" clip-rule="evenodd" d="M0 3.2H22V4.26666H0V3.2Z" fill="white"/>
<path fill-rule="evenodd" clip-rule="evenodd" d="M0 4.26667H22V11.7333H0V4.26667Z" fill="#F93939"/>
<path d="M5.7619 10.6667C7.20836 10.6667 8.38095 9.47276 8.38095 8C8.38095 6.52724 7.20836 5.33334 5.7619 5.33334C4.31544 5.33334 3.14285 6.52724 3.14285 8C3.14285 9.47276 4.31544 10.6667 5.7619 10.6667Z" fill="white"/>
<path fill-rule="evenodd" clip-rule="evenodd" d="M5.75992 9.04109L4.50278 9.71309L4.74373 8.28909L3.72754 7.28216L5.13135 7.07416L5.75992 5.77923L6.38849 7.07523L7.7923 7.28429L6.77611 8.29229L7.01706 9.71736" fill="#F93939"/>
<path fill-rule="evenodd" clip-rule="evenodd" d="M0 11.7333H22V12.8H0V11.7333Z" fill="white"/>
</g>
<defs>
<clipPath id="clip0_2_2205">
<rect width="22" height="16" fill="white"/>
</clipPath>
</defs>
</svg>
