<svg width="22" height="16" viewBox="0 0 22 16" fill="none" xmlns="http://www.w3.org/2000/svg">
<g clip-path="url(#clip0_2_2160)">
<g clip-path="url(#clip1_2_2160)">
<rect width="22" height="16" rx="2" fill="white"/>
<path d="M19.9048 0H2.09524C0.93807 0 0 0.955126 0 2.13333V13.8667C0 15.0449 0.93807 16 2.09524 16H19.9048C21.0619 16 22 15.0449 22 13.8667V2.13333C22 0.955126 21.0619 0 19.9048 0Z" fill="white"/>
<path fill-rule="evenodd" clip-rule="evenodd" d="M6.25848 5.3056C6.18933 5.94133 5.99238 6.4 5.7619 6.4C5.53143 6.4 5.33448 5.94133 5.26533 5.3056C4.64095 5.2352 4.19048 5.03466 4.19048 4.8C4.19048 4.56533 4.64095 4.3648 5.26533 4.2944C5.33448 3.65866 5.53143 3.2 5.7619 3.2C5.99238 3.2 6.18933 3.65866 6.25848 4.2944C6.88286 4.3648 7.33333 4.56533 7.33333 4.8C7.33333 5.03466 6.88286 5.2352 6.25848 5.3056Z" fill="#1A47B8"/>
<path fill-rule="evenodd" clip-rule="evenodd" d="M16.7347 12.7723C16.6655 13.408 16.4686 13.8667 16.2381 13.8667C16.0076 13.8667 15.8107 13.408 15.7415 12.7723C15.1171 12.7019 14.6667 12.5013 14.6667 12.2667C14.6667 12.032 15.1171 11.8315 15.7415 11.7611C15.8107 11.1253 16.0066 10.6667 16.2381 10.6667C16.4686 10.6667 16.6655 11.1253 16.7347 11.7611C17.3591 11.8315 17.8095 12.0309 17.8095 12.2667C17.8095 12.5013 17.3591 12.7019 16.7347 12.7723Z" fill="#F93939"/>
<path fill-rule="evenodd" clip-rule="evenodd" d="M0 8H11V16H0V8Z" fill="#1A47B8"/>
<path fill-rule="evenodd" clip-rule="evenodd" d="M11 0H22V8H11V0Z" fill="#F93939"/>
</g>
</g>
<defs>
<clipPath id="clip0_2_2160">
<rect width="22" height="16" fill="white"/>
</clipPath>
<clipPath id="clip1_2_2160">
<rect width="22" height="16" rx="2" fill="white"/>
</clipPath>
</defs>
</svg>
