<svg width="22" height="16" viewBox="0 0 22 16" fill="none" xmlns="http://www.w3.org/2000/svg">
<g clip-path="url(#clip0_2_2114)">
<rect width="22" height="16" rx="2" fill="#F93939"/>
<path fill-rule="evenodd" clip-rule="evenodd" d="M0 0H7V16H0V0Z" fill="#249F58"/>
<path d="M7.33333 10.6667C9.06908 10.6667 10.4762 9.23397 10.4762 7.46666C10.4762 5.69935 9.06908 4.26666 7.33333 4.26666C5.59758 4.26666 4.19048 5.69935 4.19048 7.46666C4.19048 9.23397 5.59758 10.6667 7.33333 10.6667Z" fill="#FFDA2C"/>
<path fill-rule="evenodd" clip-rule="evenodd" d="M9.42857 8.53333V5.33333H5.23809V8.53333C5.23809 9.12213 6.17571 9.6 7.33333 9.6C8.49095 9.6 9.42857 9.12213 9.42857 8.53333Z" fill="#F93939"/>
<path fill-rule="evenodd" clip-rule="evenodd" d="M6.28571 6.39999H8.38095V8.53333H6.28571V6.39999Z" fill="white"/>
<path fill-rule="evenodd" clip-rule="evenodd" d="M6.28571 6.39999H7.33333V7.46666H6.28571V6.39999ZM7.33333 7.46666H8.38095V8.53333H7.33333V7.46666Z" fill="#1A47B8"/>
</g>
<defs>
<clipPath id="clip0_2_2114">
<rect width="22" height="16" fill="white"/>
</clipPath>
</defs>
</svg>
