<svg width="22" height="16" viewBox="0 0 22 16" fill="none" xmlns="http://www.w3.org/2000/svg">
<g clip-path="url(#clip0_2_2041)">
<g clip-path="url(#clip1_2_2041)">
<rect width="22" height="16" rx="2" fill="#1A47B8"/>
<path fill-rule="evenodd" clip-rule="evenodd" d="M0 11H22V16H0V11Z" fill="white"/>
<path fill-rule="evenodd" clip-rule="evenodd" d="M0 0H22V5.41667H0V0ZM8.38095 10.8333V5.41667H4.19048V10.8333C4.19048 12.0304 5.1281 13 6.28571 13C7.44333 13 8.38095 12.0304 8.38095 10.8333Z" fill="#F93939"/>
<path fill-rule="evenodd" clip-rule="evenodd" d="M5.23809 5.33333L4.19048 4.26666C4.19048 4.26666 5.23809 3.2 6.28571 3.2C7.33333 3.2 8.38095 4.26666 8.38095 4.26666L7.33333 5.33333H5.23809Z" fill="#FFDA2C"/>
<path fill-rule="evenodd" clip-rule="evenodd" d="M5.23809 6.39999L4.19048 7.46666L6.28571 8.53333L5.23809 10.6667L6.28571 12.8L7.33333 10.6667L6.28571 8.53333L8.38095 7.46666L7.33333 6.39999L6.28571 7.46666L5.23809 6.39999Z" fill="white"/>
<path fill-rule="evenodd" clip-rule="evenodd" d="M5.23809 6.39999H4.19048V7.46666L5.23809 6.39999ZM7.33333 6.39999H8.38095V7.46666L7.33333 6.39999Z" fill="#FFDA2C"/>
<path fill-rule="evenodd" clip-rule="evenodd" d="M6.28571 3.2L5.23809 4.26666L6.28571 5.33333L7.33333 4.26666L6.28571 3.2Z" fill="#A75835"/>
<path fill-rule="evenodd" clip-rule="evenodd" d="M6.28571 8.53334L4.19048 9.60001H8.38095L6.28571 8.53334Z" fill="#88605F"/>
</g>
</g>
<defs>
<clipPath id="clip0_2_2041">
<rect width="22" height="16" fill="white"/>
</clipPath>
<clipPath id="clip1_2_2041">
<rect width="22" height="16" rx="2" fill="white"/>
</clipPath>
</defs>
</svg>
