<svg width="22" height="16" viewBox="0 0 22 16" fill="none" xmlns="http://www.w3.org/2000/svg">
<g clip-path="url(#clip0_2_1993)">
<g clip-path="url(#clip1_2_1993)">
<rect width="22" height="16" rx="2" fill="#1A47B8"/>
<path fill-rule="evenodd" clip-rule="evenodd" d="M0 16H22V0L0 16Z" fill="#FFDA2C"/>
<path fill-rule="evenodd" clip-rule="evenodd" d="M2.09524 16H22V2.13333L2.09524 16Z" fill="#249F58"/>
<path fill-rule="evenodd" clip-rule="evenodd" d="M5.3659 6.0352L4.71847 6.4L4.84209 5.62773L4.31828 5.0816L5.04114 4.96853L5.3659 4.26666L5.69066 4.96853L6.41352 5.0816L5.88971 5.62773L6.01333 6.4L5.3659 6.0352ZM3.27066 3.90186L2.62324 4.26666L2.74685 3.4944L2.22305 2.94826L2.9459 2.8352L3.27066 2.13333L3.59543 2.8352L4.31828 2.94826L3.79447 3.4944L3.91809 4.26666L3.27066 3.90186ZM7.46114 3.90186L6.81371 4.26666L6.93733 3.4944L6.41352 2.94826L7.13638 2.8352L7.46114 2.13333L7.7859 2.8352L8.50876 2.94826L7.98495 3.4944L8.10857 4.26666L7.46114 3.90186ZM7.46114 8.16853L6.81371 8.53333L6.93733 7.76106L6.41352 7.21493L7.13638 7.10186L7.46114 6.4L7.7859 7.10186L8.50876 7.21493L7.98495 7.76106L8.10857 8.53333L7.46114 8.16853ZM3.27066 8.16853L2.62324 8.53333L2.74685 7.76106L2.22305 7.21493L2.9459 7.10186L3.27066 6.4L3.59543 7.10186L4.31828 7.21493L3.79447 7.76106L3.91809 8.53333L3.27066 8.16853Z" fill="white"/>
</g>
</g>
<defs>
<clipPath id="clip0_2_1993">
<rect width="22" height="16" fill="white"/>
</clipPath>
<clipPath id="clip1_2_1993">
<rect width="22" height="16" rx="2" fill="white"/>
</clipPath>
</defs>
</svg>
