<svg width="22" height="16" viewBox="0 0 22 16" fill="none" xmlns="http://www.w3.org/2000/svg">
<g clip-path="url(#clip0_2_1978)">
<g clip-path="url(#clip1_2_1978)">
<rect width="22" height="16" rx="2" fill="white"/>
<path d="M19.9048 0H2.09524C0.93807 0 0 0.955126 0 2.13333V13.8667C0 15.0449 0.93807 16 2.09524 16H19.9048C21.0619 16 22 15.0449 22 13.8667V2.13333C22 0.955126 21.0619 0 19.9048 0Z" fill="white"/>
<path fill-rule="evenodd" clip-rule="evenodd" d="M0 10.6667H22V16H0V10.6667Z" fill="#1A47B8"/>
<path fill-rule="evenodd" clip-rule="evenodd" d="M0 0H22V5.33333H0V0Z" fill="#F93939"/>
<path fill-rule="evenodd" clip-rule="evenodd" d="M8.39457 10.6667L2.09524 16.0352H0V0H2.09524L8.38095 5.33333H22V10.6667H8.39457Z" fill="white"/>
<path fill-rule="evenodd" clip-rule="evenodd" d="M8.06667 9.6L0.52381 16L0 16.0352V0H0.52381L8.06667 6.4H22V9.6H8.06667Z" fill="#249F58"/>
<path fill-rule="evenodd" clip-rule="evenodd" d="M0 3.2L6.28571 8L0 12.8V3.2Z" fill="#FFDA2C"/>
<path fill-rule="evenodd" clip-rule="evenodd" d="M0 4.26666L4.97619 8L0 11.7333V4.26666Z" fill="#151515"/>
</g>
</g>
<defs>
<clipPath id="clip0_2_1978">
<rect width="22" height="16" fill="white"/>
</clipPath>
<clipPath id="clip1_2_1978">
<rect width="22" height="16" rx="2" fill="white"/>
</clipPath>
</defs>
</svg>
