<svg width="22" height="16" viewBox="0 0 22 16" fill="none" xmlns="http://www.w3.org/2000/svg">
<g clip-path="url(#clip0_2_1807)">
<rect width="22" height="16" rx="2" fill="white"/>
<path fill-rule="evenodd" clip-rule="evenodd" d="M10.4762 3.20001H22V5.33335H10.4762V3.20001ZM10.4762 7.46668H22V9.60001H10.4762V7.46668ZM0 11.7333H22V13.8667H0V11.7333Z" fill="#3A99FF"/>
<path fill-rule="evenodd" clip-rule="evenodd" d="M7.20762 7.33867C6.96667 8.66667 6.41143 9.6 5.7619 9.6C5.11238 9.6 4.55714 8.66773 4.31619 7.33867C3.0119 7.09333 2.09524 6.528 2.09524 5.86666C2.09524 5.20533 3.01086 4.64 4.31619 4.39466C4.55714 3.06666 5.11238 2.13333 5.7619 2.13333C6.41143 2.13333 6.96667 3.0656 7.20762 4.39466C8.5119 4.64 9.42857 5.20533 9.42857 5.86666C9.42857 6.528 8.51295 7.09333 7.20762 7.33867Z" fill="#D4AF2C"/>
<path fill-rule="evenodd" clip-rule="evenodd" d="M6.48162 6.59946C6.41457 8.30933 6.11809 9.6 5.7619 9.6C5.40571 9.6 5.10924 8.30933 5.04219 6.59946C3.36286 6.5312 2.09524 6.22933 2.09524 5.86666C2.09524 5.504 3.36286 5.20213 5.04219 5.13387C5.10924 3.424 5.40571 2.13333 5.7619 2.13333C6.11809 2.13333 6.41457 3.424 6.48162 5.13387C8.16095 5.20213 9.42857 5.504 9.42857 5.86666C9.42857 6.22933 8.16095 6.5312 6.48162 6.59946Z" fill="#FFDA2C"/>
<path d="M5.7619 7.46666C6.62978 7.46666 7.33333 6.75032 7.33333 5.86666C7.33333 4.98301 6.62978 4.26666 5.7619 4.26666C4.89403 4.26666 4.19048 4.98301 4.19048 5.86666C4.19048 6.75032 4.89403 7.46666 5.7619 7.46666Z" fill="#FFDA2C"/>
</g>
<defs>
<clipPath id="clip0_2_1807">
<rect width="22" height="16" fill="white"/>
</clipPath>
</defs>
</svg>
