<svg width="22" height="16" viewBox="0 0 22 16" fill="none" xmlns="http://www.w3.org/2000/svg">
<g clip-path="url(#clip0_2_3069)">
<g clip-path="url(#clip1_2_3069)">
<rect width="22" height="16" rx="2" fill="#F93939"/>
<path d="M19.9048 0H2.09524C0.93807 0 0 0.955126 0 2.13333V13.8667C0 15.0449 0.93807 16 2.09524 16H19.9048C21.0619 16 22 15.0449 22 13.8667V2.13333C22 0.955126 21.0619 0 19.9048 0Z" fill="#F93939"/>
<path fill-rule="evenodd" clip-rule="evenodd" d="M11 4.26668L9.42857 3.20001L8.38095 4.26668H9.42857L8.38095 5.33335L6.28571 4.26668V9.60001L9.42857 8.53335L8.38095 10.6667H7.33333L8.38095 11.7333L9.42857 10.6667L11 12.8V4.26668ZM12.5714 3.20001L13.619 4.26668H12.5714L13.619 5.33335L15.7143 4.26668V9.60001L12.5714 8.53335L13.619 10.6667H14.6667L13.619 11.7333L12.5714 10.6667L11 12.8V4.26668L12.5714 3.20001Z" fill="#151515"/>
</g>
</g>
<defs>
<clipPath id="clip0_2_3069">
<rect width="22" height="16" fill="white"/>
</clipPath>
<clipPath id="clip1_2_3069">
<rect width="22" height="16" rx="2" fill="white"/>
</clipPath>
</defs>
</svg>
