<svg width="22" height="16" viewBox="0 0 22 16" fill="none" xmlns="http://www.w3.org/2000/svg">
<g clip-path="url(#clip0_2_3060)">
<g clip-path="url(#clip1_2_3060)">
<path d="M19.9048 0H2.09524C0.93807 0 0 0.955126 0 2.13333V13.8667C0 15.0449 0.93807 16 2.09524 16H19.9048C21.0619 16 22 15.0449 22 13.8667V2.13333C22 0.955126 21.0619 0 19.9048 0Z" fill="#FFDA2C"/>
<path fill-rule="evenodd" clip-rule="evenodd" d="M0 0H7V16H0V0Z" fill="#1A47B8"/>
<path fill-rule="evenodd" clip-rule="evenodd" d="M15 0H22V16H15V0Z" fill="#F93939"/>
<path fill-rule="evenodd" clip-rule="evenodd" d="M12.5044 10.5973C13.1476 10.3979 13.619 9.7888 13.619 9.06666V5.86666C13.619 4.976 12.915 4.26666 12.0476 4.26666H9.95238C9.08705 4.26666 8.38095 4.98133 8.38095 5.86666V9.06666C8.38095 9.79413 8.85028 10.4 9.49562 10.5984C9.69047 11.2597 10.2897 11.7333 11 11.7333C11.7145 11.7333 12.3095 11.2533 12.5044 10.5973Z" fill="#D4AF2C"/>
<path fill-rule="evenodd" clip-rule="evenodd" d="M9.42857 5.33334H10.4762V6.93334H9.42857V5.33334ZM11.5238 7.46668H12.5714V9.06668H11.5238V7.46668Z" fill="#AF010D"/>
<path fill-rule="evenodd" clip-rule="evenodd" d="M11.5238 5.33334H12.5714V6.93334H11.5238V5.33334ZM9.42857 7.46668H10.4762V9.06668H9.42857V7.46668Z" fill="#FFDA2C"/>
</g>
</g>
<defs>
<clipPath id="clip0_2_3060">
<rect width="22" height="16" fill="white"/>
</clipPath>
<clipPath id="clip1_2_3060">
<rect width="22" height="16" rx="2" fill="white"/>
</clipPath>
</defs>
</svg>
