<svg width="22" height="16" viewBox="0 0 22 16" fill="none" xmlns="http://www.w3.org/2000/svg">
<g clip-path="url(#clip0_2_3045)">
<g clip-path="url(#clip1_2_3045)">
<rect width="22" height="16" rx="2" fill="#151515"/>
<rect width="22" height="16" fill="#151515"/>
<path d="M11 9.6C13.025 9.6 14.6667 7.92853 14.6667 5.86666C14.6667 3.8048 13.025 2.13333 11 2.13333C8.97496 2.13333 7.33333 3.8048 7.33333 5.86666C7.33333 7.92853 8.97496 9.6 11 9.6Z" fill="#FFDA2C"/>
<path fill-rule="evenodd" clip-rule="evenodd" d="M0 9.60001H22V16H0V9.60001Z" fill="white"/>
<path fill-rule="evenodd" clip-rule="evenodd" d="M0 6.39999H22V9.59999H0V6.39999Z" fill="#3A99FF"/>
<path fill-rule="evenodd" clip-rule="evenodd" d="M11.5238 16H0V0L11.5238 16Z" fill="#F93939"/>
<path fill-rule="evenodd" clip-rule="evenodd" d="M10.4762 16H22V0L10.4762 16Z" fill="#F93939"/>
</g>
</g>
<defs>
<clipPath id="clip0_2_3045">
<rect width="22" height="16" fill="white"/>
</clipPath>
<clipPath id="clip1_2_3045">
<rect width="22" height="16" rx="2" fill="white"/>
</clipPath>
</defs>
</svg>
