<svg width="22" height="16" viewBox="0 0 22 16" fill="none" xmlns="http://www.w3.org/2000/svg">
<g clip-path="url(#clip0_2_2978)">
<g clip-path="url(#clip1_2_2978)">
<rect width="22" height="16" rx="2" fill="#249F58"/>
<path d="M19.9048 0H2.09524C0.93807 0 0 0.955126 0 2.13333V13.8667C0 15.0449 0.93807 16 2.09524 16H19.9048C21.0619 16 22 15.0449 22 13.8667V2.13333C22 0.955126 21.0619 0 19.9048 0Z" fill="#249F58"/>
<path d="M10 13C12.7614 13 15 10.7614 15 8C15 5.23858 12.7614 3 10 3C7.23858 3 5 5.23858 5 8C5 10.7614 7.23858 13 10 13Z" fill="#F93939"/>
</g>
</g>
<defs>
<clipPath id="clip0_2_2978">
<rect width="22" height="16" fill="white"/>
</clipPath>
<clipPath id="clip1_2_2978">
<rect width="22" height="16" rx="2" fill="white"/>
</clipPath>
</defs>
</svg>
