<svg width="22" height="16" viewBox="0 0 22 16" fill="none" xmlns="http://www.w3.org/2000/svg">
<g clip-path="url(#clip0_2_2965)">
<g clip-path="url(#clip1_2_2965)">
<rect width="22" height="16" rx="2" fill="#F93939"/>
<path d="M19.9048 0H2.09524C0.93807 0 0 0.955126 0 2.13333V13.8667C0 15.0449 0.93807 16 2.09524 16H19.9048C21.0619 16 22 15.0449 22 13.8667V2.13333C22 0.955126 21.0619 0 19.9048 0Z" fill="#F93939"/>
<path fill-rule="evenodd" clip-rule="evenodd" d="M3.14286 0L5.2381 1.6L3.14286 3.2V0ZM3.14286 3.2L5.2381 4.8L3.14286 6.4V3.2ZM3.14286 6.4L5.2381 8L3.14286 9.6V6.4ZM3.14286 9.6L5.2381 11.2L3.14286 12.8V9.6ZM3.14286 12.8L5.2381 14.4L3.14286 16V12.8ZM2.09524 0L0 1.6L2.09524 3.2V0ZM2.09524 3.2L0 4.8L2.09524 6.4V3.2ZM2.09524 6.4L0 8L2.09524 9.6V6.4ZM2.09524 9.6L0 11.2L2.09524 12.8V9.6ZM2.09524 12.8L0 14.4L2.09524 16V12.8ZM2.09524 0H3.14286V2.13333H2.09524V0ZM2.09524 13.8667H3.14286V16H2.09524V13.8667ZM2.09524 5.33333H3.14286V7.46667H2.09524V5.33333ZM2.09524 3.2H3.14286V4.26667H2.09524V3.2ZM2.09524 11.7333H3.14286V12.8H2.09524V11.7333ZM2.09524 8.53333H3.14286V10.6667H2.09524V8.53333Z" fill="white"/>
<path fill-rule="evenodd" clip-rule="evenodd" d="M5 12H22V16H5V12Z" fill="#249F58"/>
</g>
</g>
<defs>
<clipPath id="clip0_2_2965">
<rect width="22" height="16" fill="white"/>
</clipPath>
<clipPath id="clip1_2_2965">
<rect width="22" height="16" rx="2" fill="white"/>
</clipPath>
</defs>
</svg>
