<svg width="22" height="16" viewBox="0 0 22 16" fill="none" xmlns="http://www.w3.org/2000/svg">
<g clip-path="url(#clip0_2_2892)">
<g clip-path="url(#clip1_2_2892)">
<rect width="22" height="16" rx="2" fill="#FFDA2C"/>
<path d="M19.9048 0H2.09524C0.93807 0 0 0.955126 0 2.13333V13.8667C0 15.0449 0.93807 16 2.09524 16H19.9048C21.0619 16 22 15.0449 22 13.8667V2.13333C22 0.955126 21.0619 0 19.9048 0Z" fill="#FFDA2C"/>
<path fill-rule="evenodd" clip-rule="evenodd" d="M0 0L22 10.6667V14.9333L0 4.26667V0Z" fill="white"/>
<path fill-rule="evenodd" clip-rule="evenodd" d="M0 3.2L22 13.8667V16L0 5.33333V3.2Z" fill="#151515"/>
<path fill-rule="evenodd" clip-rule="evenodd" d="M8.38095 7.46666L9.42857 8.53333V12.8L7.33333 11.7333V9.6L5.23809 7.46666L7.33333 5.33333L8.38095 6.4V7.46666ZM9.42857 9.6H12.5714V10.6667H9.42857V9.6ZM13.619 7.46666L12.5714 8.53333V12.8L14.6667 11.7333V9.6L16.7619 7.46666L14.6667 5.33333L13.619 6.4V7.46666ZM9.42857 6.4H12.5714L11 3.2L9.42857 6.4Z" fill="#F93939"/>
</g>
</g>
<defs>
<clipPath id="clip0_2_2892">
<rect width="22" height="16" fill="white"/>
</clipPath>
<clipPath id="clip1_2_2892">
<rect width="22" height="16" rx="2" fill="white"/>
</clipPath>
</defs>
</svg>
