<svg width="22" height="16" viewBox="0 0 22 16" fill="none" xmlns="http://www.w3.org/2000/svg">
<g clip-path="url(#clip0_2_2873)">
<g clip-path="url(#clip1_2_2873)">
<path d="M19.9048 0H2.09524C0.93807 0 0 0.955126 0 2.13333V13.8667C0 15.0449 0.93807 16 2.09524 16H19.9048C21.0619 16 22 15.0449 22 13.8667V2.13333C22 0.955126 21.0619 0 19.9048 0Z" fill="#F93939"/>
<path fill-rule="evenodd" clip-rule="evenodd" d="M0 0L10.4762 8.53333L0 16V0ZM22 0L11.5238 8.53333L22 16V0Z" fill="#00B731"/>
<path fill-rule="evenodd" clip-rule="evenodd" d="M7.49886 6.8864L0 1.6V0H1.57143L8.74448 5.056C9.36572 4.56107 10.1483 4.26667 11 4.26667C11.8507 4.26667 12.6343 4.56107 13.2555 5.056L20.4286 0H22V1.6L14.5011 6.8864C14.609 7.2384 14.6667 7.61173 14.6667 8C14.6667 8.38827 14.609 8.7616 14.5011 9.1136L22 14.4V16H20.4286L13.2555 10.944C12.6332 11.4389 11.8517 11.7333 11 11.7333C10.1493 11.7333 9.36572 11.4389 8.74448 10.944L1.57143 16H0V14.4L7.49886 9.1136C7.39095 8.7616 7.33333 8.38827 7.33333 8C7.33333 7.61173 7.39095 7.2384 7.49886 6.8864Z" fill="white"/>
<path fill-rule="evenodd" clip-rule="evenodd" d="M10.4762 6.39999H11.5238V7.46666H10.4762V6.39999ZM11.5238 8.53333H12.5714V9.59999H11.5238V8.53333ZM9.42857 8.53333H10.4762V9.59999H9.42857V8.53333Z" fill="#AF010D"/>
</g>
</g>
<defs>
<clipPath id="clip0_2_2873">
<rect width="22" height="16" fill="white"/>
</clipPath>
<clipPath id="clip1_2_2873">
<rect width="22" height="16" rx="2" fill="white"/>
</clipPath>
</defs>
</svg>
