<svg width="22" height="16" viewBox="0 0 22 16" fill="none" xmlns="http://www.w3.org/2000/svg">
<g clip-path="url(#clip0_2_2846)">
<rect width="22" height="16" rx="2" fill="#1A47B8"/>
<path fill-rule="evenodd" clip-rule="evenodd" d="M0 8.53334H22V9.60001H0V8.53334Z" fill="white"/>
<path fill-rule="evenodd" clip-rule="evenodd" d="M0 9.60001H22V10.6667H0V9.60001Z" fill="#F93939"/>
<path fill-rule="evenodd" clip-rule="evenodd" d="M0 10.6667H22V11.7333H0V10.6667Z" fill="white"/>
<path fill-rule="evenodd" clip-rule="evenodd" d="M5.23809 7.46666H6.28571V8.53333H5.23809V7.46666ZM7.33333 6.39999H8.38095V7.46666H7.33333V6.39999ZM9.42857 7.46666H10.4762V8.53333H9.42857V7.46666ZM10.4762 9.59999H11.5238V10.6667H10.4762V9.59999ZM4.19048 9.59999H5.23809V10.6667H4.19048V9.59999ZM9.42857 11.7333H10.4762V12.8H9.42857V11.7333ZM7.33333 12.8H8.38095V13.8667H7.33333V12.8ZM5.23809 11.7333H6.28571V12.8H5.23809V11.7333Z" fill="#FFDA2C"/>
</g>
<defs>
<clipPath id="clip0_2_2846">
<rect width="22" height="16" fill="white"/>
</clipPath>
</defs>
</svg>
