<svg width="22" height="16" viewBox="0 0 22 16" fill="none" xmlns="http://www.w3.org/2000/svg">
<g clip-path="url(#clip0_2_2819)">
<g clip-path="url(#clip1_2_2819)">
<rect width="22" height="16" rx="2" fill="#F93939"/>
<path d="M19.9048 0H2.09524C0.93807 0 0 0.955126 0 2.13333V13.8667C0 15.0449 0.93807 16 2.09524 16H19.9048C21.0619 16 22 15.0449 22 13.8667V2.13333C22 0.955126 21.0619 0 19.9048 0Z" fill="#F93939"/>
<path fill-rule="evenodd" clip-rule="evenodd" d="M5.75993 7.712L4.21993 8.53653L4.51326 6.7904L3.26869 5.55306L4.98993 5.30026L5.75993 3.71093L6.52888 5.30026L8.25012 5.55306L7.00345 6.7904L7.29888 8.53546L5.75993 7.712ZM9.42869 3.2H10.4763V4.26666H9.42869V3.2ZM10.4763 5.33333H11.5239V6.4H10.4763V5.33333ZM10.4763 7.46666H11.5239V8.53333H10.4763V7.46666ZM9.42869 9.6H10.4763V10.6667H9.42869V9.6Z" fill="#FFDA2C"/>
</g>
</g>
<defs>
<clipPath id="clip0_2_2819">
<rect width="22" height="16" fill="white"/>
</clipPath>
<clipPath id="clip1_2_2819">
<rect width="22" height="16" rx="2" fill="white"/>
</clipPath>
</defs>
</svg>
