<svg width="22" height="16" viewBox="0 0 22 16" fill="none" xmlns="http://www.w3.org/2000/svg">
<g clip-path="url(#clip0_2_2783)">
<g clip-path="url(#clip1_2_2783)">
<rect width="22" height="16" rx="2" fill="white"/>
<path fill-rule="evenodd" clip-rule="evenodd" d="M0 11H22V16H0V11Z" fill="#1A47B8"/>
<path fill-rule="evenodd" clip-rule="evenodd" d="M0 0H22V5H0V0Z" fill="#F93939"/>
<path fill-rule="evenodd" clip-rule="evenodd" d="M8.38095 4.26666H9.42857V5.33333H8.38095V4.26666ZM10.4762 3.2H11.5238V5.33333H10.4762V3.2ZM12.5714 4.26666H13.619V5.33333H12.5714V4.26666Z" fill="#3A99FF"/>
<path fill-rule="evenodd" clip-rule="evenodd" d="M11.5238 3.2H12.5714V5.33333H11.5238V3.2ZM9.42857 3.2H10.4762V5.33333H9.42857V3.2Z" fill="#1A47B8"/>
<mask id="mask0_2_2783" style="mask-type:alpha" maskUnits="userSpaceOnUse" x="8" y="5" width="6" height="7">
<path d="M13.619 9.06666C13.619 10.5387 12.4457 11.7333 11 11.7333C9.55428 11.7333 8.38095 10.5387 8.38095 9.06666V5.33333H13.619V9.06666Z" fill="white"/>
</mask>
<g mask="url(#mask0_2_2783)">
<path d="M13.619 9.06666C13.619 10.5387 12.4457 11.7333 11 11.7333C9.55428 11.7333 8.38095 10.5387 8.38095 9.06666V5.33333H13.619V9.06666Z" fill="#F93939"/>
<path fill-rule="evenodd" clip-rule="evenodd" d="M9.42857 10.6667H10.4762V11.7333H9.42857V10.6667ZM11.5238 10.6667H12.5714V11.7333H11.5238V10.6667ZM10.4762 9.59999H11.5238V10.6667H10.4762V9.59999ZM9.42857 8.53333H10.4762V9.59999H9.42857V8.53333ZM11.5238 8.53333H12.5714V9.59999H11.5238V8.53333ZM10.4762 7.46666H11.5238V8.53333H10.4762V7.46666ZM9.42857 6.39999H10.4762V7.46666H9.42857V6.39999ZM11.5238 6.39999H12.5714V7.46666H11.5238V6.39999ZM10.4762 5.33333H11.5238V6.39999H10.4762V5.33333ZM12.5714 5.33333H13.619V6.39999H12.5714V5.33333ZM12.5714 7.46666H13.619V8.53333H12.5714V7.46666ZM12.5714 9.59999H13.619V10.6667H12.5714V9.59999ZM8.38095 9.59999H9.42857V10.6667H8.38095V9.59999ZM8.38095 7.46666H9.42857V8.53333H8.38095V7.46666ZM8.38095 5.33333H9.42857V6.39999H8.38095V5.33333Z" fill="white"/>
</g>
</g>
</g>
<defs>
<clipPath id="clip0_2_2783">
<rect width="22" height="16" fill="white"/>
</clipPath>
<clipPath id="clip1_2_2783">
<rect width="22" height="16" rx="2" fill="white"/>
</clipPath>
</defs>
</svg>
