<svg width="22" height="16" viewBox="0 0 22 16" fill="none" xmlns="http://www.w3.org/2000/svg">
<g clip-path="url(#clip0_2_2649)">
<rect width="22" height="16" rx="2" fill="#3ECBF8"/>
<path fill-rule="evenodd" clip-rule="evenodd" d="M18.8571 10.6667V6.93334C18.8571 6.04267 18.1531 5.33334 17.2857 5.33334H15.1905C14.3251 5.33334 13.619 6.048 13.619 6.93334V10.6667C13.619 10.8608 14.6667 12.8 16.2381 12.8C17.8095 12.8 18.8571 10.8555 18.8571 10.6667Z" fill="white"/>
<path fill-rule="evenodd" clip-rule="evenodd" d="M16.7619 8.53334V9.72587H18.8571V10.752H16.7619V12.8H15.7143V10.752H13.619V9.72587H15.7143V8.53334H13.619V5.33334H18.8571V8.53334H16.7619Z" fill="#F93939"/>
<path fill-rule="evenodd" clip-rule="evenodd" d="M14.6667 6.4H17.8095V7.46667H14.6667V6.4Z" fill="#FFDA2C"/>
<path d="M9.42858 1.06667H2.09524C1.51666 1.06667 1.04762 1.54423 1.04762 2.13333V7.46667C1.04762 8.05577 1.51666 8.53333 2.09524 8.53333H9.42858C10.0072 8.53333 10.4762 8.05577 10.4762 7.46667V2.13333C10.4762 1.54423 10.0072 1.06667 9.42858 1.06667Z" fill="white"/>
<path fill-rule="evenodd" clip-rule="evenodd" d="M5.2381 5.33333H2.09525V4.26666H5.2381V2.13333H6.28572V4.26666H9.42858V5.33333H6.28572V7.46666H5.2381V5.33333ZM7.85715 6.4V7.46666H9.42858V6.4H7.85715ZM7.85715 2.13333V3.2H9.42858V2.13333H7.85715ZM2.09525 6.4V7.46666H3.66667V6.4H2.09525ZM2.09525 2.13333V3.2H3.66667V2.13333H2.09525Z" fill="#F93939"/>
</g>
<defs>
<clipPath id="clip0_2_2649">
<rect width="22" height="16" fill="white"/>
</clipPath>
</defs>
</svg>
