<svg width="22" height="16" viewBox="0 0 22 16" fill="none" xmlns="http://www.w3.org/2000/svg">
<g clip-path="url(#clip0_2_2623)">
<g clip-path="url(#clip1_2_2623)">
<rect width="22" height="16" rx="2" fill="white"/>
<path fill-rule="evenodd" clip-rule="evenodd" d="M9.42857 9.6H0V6.4H9.42857V0H12.5714V6.4H22V9.6H12.5714V16H9.42857V9.6Z" fill="#F93939"/>
<path fill-rule="evenodd" clip-rule="evenodd" d="M15.7143 11.7333H14.6667V12.8H15.7143V13.8667H16.7619V12.8H17.8095V11.7333H16.7619V10.6667H15.7143V11.7333ZM15.7143 3.2H14.6667V4.26666H15.7143V5.33333H16.7619V4.26666H17.8095V3.2H16.7619V2.13333H15.7143V3.2ZM5.23809 3.2H4.19048V4.26666H5.23809V5.33333H6.28571V4.26666H7.33333V3.2H6.28571V2.13333H5.23809V3.2ZM5.23809 11.7333H4.19048V12.8H5.23809V13.8667H6.28571V12.8H7.33333V11.7333H6.28571V10.6667H5.23809V11.7333Z" fill="#F93939"/>
</g>
</g>
<defs>
<clipPath id="clip0_2_2623">
<rect width="22" height="16" fill="white"/>
</clipPath>
<clipPath id="clip1_2_2623">
<rect width="22" height="16" rx="2" fill="white"/>
</clipPath>
</defs>
</svg>
