<svg width="22" height="16" viewBox="0 0 22 16" fill="none" xmlns="http://www.w3.org/2000/svg">
<g clip-path="url(#clip0_2_2541)">
<rect width="22" height="16" rx="2" fill="#F93939"/>
<path fill-rule="evenodd" clip-rule="evenodd" d="M10.6386 8.01494C7.79744 6.7904 9.05667 3.01867 11.7752 3.2064C11.2242 3.4944 11.1446 4.032 11.4589 4.52907C11.8109 5.088 11.4274 5.98507 10.9518 6.20374C10.1703 6.56107 10.0142 7.51574 10.6375 8.01494H10.6386ZM10.8764 7.8848C11.1414 4.75627 15.0564 4.8096 15.7164 7.49867C15.2785 7.056 14.7526 7.14454 14.3838 7.6032C13.9721 8.1152 13.0156 8.0192 12.6657 7.62774C12.0895 6.98347 11.1467 7.1264 10.8764 7.88587V7.8848ZM10.9728 8.19734C13.9899 7.54134 15.0836 11.3675 12.7506 12.7989C13.0397 12.2411 12.803 11.7536 12.2645 11.5296C11.6631 11.2779 11.4725 10.3189 11.7386 9.86347C12.1765 9.1136 11.7658 8.23894 10.9738 8.19627L10.9728 8.19734ZM7.07144 11.712C7.67905 11.8187 8.06144 11.4379 8.10439 10.848C8.15363 10.1867 8.98963 9.70667 9.49772 9.824C10.3337 10.016 11.0241 9.34827 10.8177 8.56747C12.364 11.2875 9.12791 13.5275 7.07039 11.7109L7.07144 11.712ZM6.44601 5.86667C6.56648 6.4832 7.05153 6.70934 7.60886 6.53867C8.2322 6.3488 8.97286 6.97174 9.04724 7.49867C9.17086 8.36054 10.0299 8.77654 10.6711 8.30294C8.73296 10.7456 5.51677 8.4736 6.44601 5.8656V5.86667Z" fill="white"/>
</g>
<defs>
<clipPath id="clip0_2_2541">
<rect width="22" height="16" fill="white"/>
</clipPath>
</defs>
</svg>
