<svg width="22" height="16" viewBox="0 0 22 16" fill="none" xmlns="http://www.w3.org/2000/svg">
<g clip-path="url(#clip0_2_2507)">
<g clip-path="url(#clip1_2_2507)">
<rect width="22" height="16" rx="2" fill="white"/>
<path fill-rule="evenodd" clip-rule="evenodd" d="M0 11H22V16H0V11Z" fill="#151515"/>
<path fill-rule="evenodd" clip-rule="evenodd" d="M10.4762 8.53333H11.5238V9.06133C11.5238 9.37067 11.7585 9.6 12.0476 9.6C12.3284 9.6 12.5714 9.35893 12.5714 9.06133V6.928C12.5714 6.6368 12.8145 6.4 13.0952 6.4C13.3844 6.4 13.619 6.6304 13.619 6.928V8.53333H15.18C15.4754 8.53333 15.7143 8.7808 15.7143 9.06667C15.7143 9.36107 15.4817 9.6 15.18 9.6H6.82C6.52457 9.6 6.28571 9.35253 6.28571 9.06667C6.28571 8.84053 6.4219 8.64747 6.62095 8.5696C6.64714 8.50134 6.68695 8.43627 6.74248 8.3808L8.23009 6.86613C8.43333 6.6592 8.76962 6.66667 8.96867 6.86827C9.174 7.07627 9.18028 7.40693 8.97286 7.61813L8.074 8.53333H9.42857V8.00533C9.42857 7.70667 9.67162 7.46667 9.95238 7.46667C10.2415 7.46667 10.4762 7.69493 10.4762 8.00533V8.53333Z" fill="#249F58"/>
<path fill-rule="evenodd" clip-rule="evenodd" d="M0 0H22V5H0V0Z" fill="#F93939"/>
</g>
</g>
<defs>
<clipPath id="clip0_2_2507">
<rect width="22" height="16" fill="white"/>
</clipPath>
<clipPath id="clip1_2_2507">
<rect width="22" height="16" rx="2" fill="white"/>
</clipPath>
</defs>
</svg>
