<svg width="22" height="16" viewBox="0 0 22 16" fill="none" xmlns="http://www.w3.org/2000/svg">
<g clip-path="url(#clip0_2_2464)">
<rect width="22" height="16" rx="2" fill="#03BCDB"/>
<path fill-rule="evenodd" clip-rule="evenodd" d="M2.09525 2.66133C2.09525 2.37013 2.33829 2.13333 2.61905 2.13333C2.9082 2.13333 3.14286 2.36373 3.14286 2.66133V4.80533C3.14286 5.09653 2.89982 5.33333 2.61905 5.33333C2.32991 5.33333 2.09525 5.10293 2.09525 4.80533V2.66133ZM3.14286 4.79467C3.14286 4.50347 3.38591 4.26667 3.66667 4.26667C3.95582 4.26667 4.19048 4.49707 4.19048 4.79467V6.93867C4.19048 7.22987 3.94744 7.46667 3.66667 7.46667C3.37753 7.46667 3.14286 7.23627 3.14286 6.93867V4.79467ZM3.14286 9.06133C3.14286 8.77013 3.38591 8.53333 3.66667 8.53333C3.95582 8.53333 4.19048 8.76373 4.19048 9.06133V11.2053C4.19048 11.4965 3.94744 11.7333 3.66667 11.7333C3.37753 11.7333 3.14286 11.5029 3.14286 11.2053V9.06133ZM2.09525 11.1947C2.09525 10.9035 2.33829 10.6667 2.61905 10.6667C2.9082 10.6667 3.14286 10.8971 3.14286 11.1947V13.3387C3.14286 13.6299 2.89982 13.8667 2.61905 13.8667C2.32991 13.8667 2.09525 13.6363 2.09525 13.3387V11.1947ZM2.09525 6.93333C2.09525 6.63893 2.33829 6.4 2.61905 6.4C2.9082 6.4 3.14286 6.64747 3.14286 6.93333C3.14286 7.22773 2.89982 7.46667 2.61905 7.46667C2.32991 7.46667 2.09525 7.2192 2.09525 6.93333ZM3.14286 2.66667C3.14286 2.37227 3.38591 2.13333 3.66667 2.13333C3.95582 2.13333 4.19048 2.3808 4.19048 2.66667C4.19048 2.96107 3.94744 3.2 3.66667 3.2C3.37753 3.2 3.14286 2.95253 3.14286 2.66667ZM2.09525 8C2.09525 7.7056 2.33829 7.46667 2.61905 7.46667C2.9082 7.46667 3.14286 7.71413 3.14286 8C3.14286 8.2944 2.89982 8.53333 2.61905 8.53333C2.32991 8.53333 2.09525 8.28587 2.09525 8ZM3.14286 13.3333C3.14286 13.0389 3.38591 12.8 3.66667 12.8C3.95582 12.8 4.19048 13.0475 4.19048 13.3333C4.19048 13.6277 3.94744 13.8667 3.66667 13.8667C3.37753 13.8667 3.14286 13.6192 3.14286 13.3333ZM2.09525 9.06667C2.09525 8.77227 2.33829 8.53333 2.61905 8.53333C2.9082 8.53333 3.14286 8.7808 3.14286 9.06667C3.14286 9.36107 2.89982 9.6 2.61905 9.6C2.32991 9.6 2.09525 9.35253 2.09525 9.06667Z" fill="#FFDA2C"/>
<path d="M12.0476 9.6C13.4941 9.6 14.6667 8.40609 14.6667 6.93333C14.6667 5.46057 13.4941 4.26667 12.0476 4.26667C10.6012 4.26667 9.42857 5.46057 9.42857 6.93333C9.42857 8.40609 10.6012 9.6 12.0476 9.6Z" fill="#FFDA2C"/>
<path fill-rule="evenodd" clip-rule="evenodd" d="M8.38095 7.46667L9.42857 9.6L12.0476 10.6667L14.6667 9.6L15.7143 7.46667V10.6667L12.0476 11.7333L8.38095 10.6667V7.46667Z" fill="#FFDA2C"/>
</g>
<defs>
<clipPath id="clip0_2_2464">
<rect width="22" height="16" fill="white"/>
</clipPath>
</defs>
</svg>
