<svg width="22" height="16" viewBox="0 0 22 16" fill="none" xmlns="http://www.w3.org/2000/svg">
<g clip-path="url(#clip0_2_2453)">
<g clip-path="url(#clip1_2_2453)">
<rect width="22" height="16" rx="2" fill="#151515"/>
<path fill-rule="evenodd" clip-rule="evenodd" d="M0 10.6667H22V11.7333H0V10.6667Z" fill="white"/>
<path fill-rule="evenodd" clip-rule="evenodd" d="M0 11.7333H22V16H0V11.7333Z" fill="#0A6A30"/>
<path fill-rule="evenodd" clip-rule="evenodd" d="M0 5.33333H22V10.6667H0V5.33333Z" fill="#F93939"/>
<path fill-rule="evenodd" clip-rule="evenodd" d="M0 4.26667H22V5.33333H0V4.26667Z" fill="white"/>
<path fill-rule="evenodd" clip-rule="evenodd" d="M13.0051 6.30827C13.0806 6.30827 13.529 5.5936 13.529 4.70827C13.529 3.82507 13.0806 3.10827 13.0051 3.10827C12.9318 3.10827 12.4813 3.82507 12.4813 4.70827C12.4813 5.5936 12.9318 6.30827 13.0051 6.30827ZM9.92619 5.84C9.87381 5.89333 9.05667 5.712 8.44486 5.08587C7.832 4.4608 7.65181 3.63093 7.70524 3.5776C7.75762 3.52427 8.57267 3.7056 9.18657 4.33173C9.80047 4.9568 9.97962 5.78667 9.92724 5.84107L9.92619 5.84ZM11.8947 10.6752C11.947 10.6251 12.7642 10.7957 13.377 11.3792C13.9899 11.9659 14.1701 12.7413 14.1177 12.7915C14.0653 12.8416 13.2482 12.6709 12.6343 12.0875C12.0214 11.5008 11.8412 10.7253 11.8947 10.6752ZM9.92619 10.6752C9.87381 10.6251 9.05667 10.7957 8.44486 11.3792C7.832 11.9659 7.65181 12.7413 7.70524 12.7915C7.75762 12.8416 8.57267 12.6709 9.18657 12.0875C9.80047 11.5008 9.97962 10.7253 9.92724 10.6752H9.92619Z" fill="white"/>
<path fill-rule="evenodd" clip-rule="evenodd" d="M11 12.8C11.374 12.8 13.619 10.6507 13.619 8C13.619 5.34933 11.374 3.2 11 3.2C10.626 3.2 8.38095 5.34933 8.38095 8C8.38095 10.6507 10.626 12.8 11 12.8Z" fill="#F93939"/>
<path fill-rule="evenodd" clip-rule="evenodd" d="M8.90476 9.6C8.97809 9.6 9.42857 8.8832 9.42857 8C9.42857 7.1168 8.97809 6.4 8.90476 6.4C8.83143 6.4 8.38095 7.1168 8.38095 8C8.38095 8.8832 8.83143 9.6 8.90476 9.6ZM13.0952 9.6C13.1686 9.6 13.619 8.8832 13.619 8C13.619 7.1168 13.1686 6.4 13.0952 6.4C13.0219 6.4 12.5714 7.1168 12.5714 8C12.5714 8.8832 13.0219 9.6 13.0952 9.6Z" fill="#151515"/>
<path d="M11.5238 8C11.5238 7.11634 11.2893 6.4 11 6.4C10.7107 6.4 10.4762 7.11634 10.4762 8C10.4762 8.88366 10.7107 9.6 11 9.6C11.2893 9.6 11.5238 8.88366 11.5238 8Z" fill="white"/>
</g>
</g>
<defs>
<clipPath id="clip0_2_2453">
<rect width="22" height="16" fill="white"/>
</clipPath>
<clipPath id="clip1_2_2453">
<rect width="22" height="16" rx="2" fill="white"/>
</clipPath>
</defs>
</svg>
