<svg width="22" height="16" viewBox="0 0 22 16" fill="none" xmlns="http://www.w3.org/2000/svg">
<g clip-path="url(#clip0_2_2446)">
<g clip-path="url(#clip1_2_2446)">
<rect width="22" height="16" rx="2" fill="#F93939"/>
<path d="M11 11.7333C13.025 11.7333 14.6667 10.0619 14.6667 8C14.6667 5.93814 13.025 4.26667 11 4.26667C8.97496 4.26667 7.33333 5.93814 7.33333 8C7.33333 10.0619 8.97496 11.7333 11 11.7333Z" fill="#FFDA2C"/>
<path fill-rule="evenodd" clip-rule="evenodd" d="M0 8.53333H22V16H0V8.53333Z" fill="#232C80"/>
<path fill-rule="evenodd" clip-rule="evenodd" d="M0 8.53333H22V9.6H0V8.53333ZM0 10.6667H22V11.7333H0V10.6667ZM0 12.8H22V13.8667H0V12.8Z" fill="white"/>
<path fill-rule="evenodd" clip-rule="evenodd" d="M8.38095 2.13333L11 3.2L13.619 2.13333H8.38095Z" fill="#FFDA2C"/>
</g>
</g>
<defs>
<clipPath id="clip0_2_2446">
<rect width="22" height="16" fill="white"/>
</clipPath>
<clipPath id="clip1_2_2446">
<rect width="22" height="16" rx="2" fill="white"/>
</clipPath>
</defs>
</svg>
