<svg width="22" height="16" viewBox="0 0 22 16" fill="none" xmlns="http://www.w3.org/2000/svg">
<g clip-path="url(#clip0_2_2435)">
<rect width="22" height="16" rx="2" fill="#F93939"/>
<path fill-rule="evenodd" clip-rule="evenodd" d="M10.692 10.1173C10.7936 10.128 10.8963 10.1333 11 10.1333C11.1048 10.1333 11.2064 10.128 11.308 10.1173L11 9.33333L10.692 10.1173ZM9.27143 9.536C8.72352 9.0944 8.38095 8.45013 8.38095 7.73333C8.38095 6.88747 8.85867 6.144 9.57943 5.71733L10.4762 8L9.27143 9.536ZM12.4206 5.71733C13.1413 6.144 13.619 6.88747 13.619 7.73333C13.619 8.4512 13.2754 9.09547 12.7286 9.536L11.5238 8L12.4206 5.71733ZM12.3158 5.6576C11.9282 5.45067 11.4798 5.33333 11 5.33333C10.5202 5.33333 10.0708 5.45067 9.68419 5.6576L11 7.33227L12.3158 5.6576Z" fill="#FFDA2C"/>
<path fill-rule="evenodd" clip-rule="evenodd" d="M11 12.8C13.6033 12.8 15.7143 10.6507 15.7143 8C15.7143 5.34933 13.6033 3.2 11 3.2C8.39667 3.2 6.28571 5.34933 6.28571 8C6.28571 10.6507 8.39667 12.8 11 12.8ZM11 11.7333C13.025 11.7333 14.6667 10.0619 14.6667 8C14.6667 5.93813 13.025 4.26667 11 4.26667C8.97495 4.26667 7.33333 5.93813 7.33333 8C7.33333 10.0619 8.97495 11.7333 11 11.7333Z" fill="#FFDA2C"/>
</g>
<defs>
<clipPath id="clip0_2_2435">
<rect width="22" height="16" fill="white"/>
</clipPath>
</defs>
</svg>
