<svg width="22" height="16" viewBox="0 0 22 16" fill="none" xmlns="http://www.w3.org/2000/svg">
<g clip-path="url(#clip0_2_2305)">
<g clip-path="url(#clip1_2_2305)">
<rect width="22" height="16" rx="2" fill="#FFDA2C"/>
<path fill-rule="evenodd" clip-rule="evenodd" d="M0 0H8V16H0V0Z" fill="#1A47B8"/>
<path fill-rule="evenodd" clip-rule="evenodd" d="M9 5.125H14V10.75H9V5.125ZM9 10.75L11.5 13L14 10.75H9ZM11 4H12V5.125H11V4Z" fill="#AE6A3E"/>
<path fill-rule="evenodd" clip-rule="evenodd" d="M10 6H13V9H10V6Z" fill="#AF010D"/>
<path fill-rule="evenodd" clip-rule="evenodd" d="M10 9H13V10.2H10V9ZM10 10.2L11.5 11L13 10.2H10Z" fill="#1A47B8"/>
<path fill-rule="evenodd" clip-rule="evenodd" d="M11.5 7C11.776 7 12 7.321 12 7.7575V9.2425C12 9.6625 11.768 10 11.5 10C11.224 10 11 9.679 11 9.2425V7.7575C11 7.3375 11.232 7 11.5 7Z" fill="#FFDA2C"/>
<path fill-rule="evenodd" clip-rule="evenodd" d="M15 0H23V16H15V0Z" fill="#AF010D"/>
</g>
</g>
<defs>
<clipPath id="clip0_2_2305">
<rect width="22" height="16" fill="white"/>
</clipPath>
<clipPath id="clip1_2_2305">
<rect width="22" height="16" rx="2" fill="white"/>
</clipPath>
</defs>
</svg>
