<svg width="22" height="16" viewBox="0 0 22 16" fill="none" xmlns="http://www.w3.org/2000/svg">
<g clip-path="url(#clip0_2_2292)">
<g clip-path="url(#clip1_2_2292)">
<rect width="22" height="16" rx="2" fill="#1A47B8"/>
<path fill-rule="evenodd" clip-rule="evenodd" d="M0 0H7.33333V16H0V0Z" fill="#F93939"/>
<path fill-rule="evenodd" clip-rule="evenodd" d="M2.09525 7.46667H3.14286V11.7333H2.09525V7.46667ZM5.2381 7.46667H6.28572V11.7333H5.2381V7.46667Z" fill="#FFDA2C"/>
<path d="M4.19047 11.7333C4.76906 11.7333 5.23809 11.2558 5.23809 10.6667C5.23809 10.0776 4.76906 9.6 4.19047 9.6C3.61189 9.6 3.14285 10.0776 3.14285 10.6667C3.14285 11.2558 3.61189 11.7333 4.19047 11.7333Z" fill="#FFDA2C"/>
<path d="M4.19047 8.53333C4.76906 8.53333 5.23809 8.05577 5.23809 7.46667C5.23809 6.87756 4.76906 6.4 4.19047 6.4C3.61189 6.4 3.14285 6.87756 3.14285 7.46667C3.14285 8.05577 3.61189 8.53333 4.19047 8.53333Z" fill="#FFDA2C"/>
<path fill-rule="evenodd" clip-rule="evenodd" d="M4.19047 3.2L5.23809 5.33333H3.14285L4.19047 3.2Z" fill="#FFDA2C"/>
<path fill-rule="evenodd" clip-rule="evenodd" d="M14.6667 0H22V16H14.6667V0Z" fill="#F93939"/>
</g>
</g>
<defs>
<clipPath id="clip0_2_2292">
<rect width="22" height="16" fill="white"/>
</clipPath>
<clipPath id="clip1_2_2292">
<rect width="22" height="16" rx="2" fill="white"/>
</clipPath>
</defs>
</svg>
