<svg width="22" height="16" viewBox="0 0 22 16" fill="none" xmlns="http://www.w3.org/2000/svg">
<g clip-path="url(#clip0_2_2270)">
<g clip-path="url(#clip1_2_2270)">
<rect width="22" height="16" rx="2" fill="#151515"/>
<path fill-rule="evenodd" clip-rule="evenodd" d="M0 11H22V16H0V11Z" fill="#FFDA2C"/>
<path fill-rule="evenodd" clip-rule="evenodd" d="M0 0H22V5H0V0Z" fill="#249F58"/>
<path opacity="0.35" fill-rule="evenodd" clip-rule="evenodd" d="M0 0H22V5H0V0Z" fill="#1A47B8"/>
<path fill-rule="evenodd" clip-rule="evenodd" d="M0 4H22V5.14286H0V4ZM0 10.8571H22V12H0V10.8571Z" fill="white"/>
<path fill-rule="evenodd" clip-rule="evenodd" d="M0 0V16L11 7.98244L0 0Z" fill="#F93939"/>
<path fill-rule="evenodd" clip-rule="evenodd" d="M3.50053 9.14548L1.95478 10L2.24921 8.19036L1 6.90803L2.72765 6.64603L3.50053 5L4.27234 6.64714L6 6.90913L4.74869 8.19147L5.04522 10" fill="#FFDA2C"/>
<path fill-rule="evenodd" clip-rule="evenodd" d="M2 6.42909L2.42926 6L5 8.57212L4.57316 9L2 6.4303V6.42909Z" fill="#151515"/>
<path fill-rule="evenodd" clip-rule="evenodd" d="M5 6.42909L4.57212 6L2 8.57212L2.42909 9L4.99879 6.4303L5 6.42909Z" fill="#151515"/>
</g>
</g>
<defs>
<clipPath id="clip0_2_2270">
<rect width="22" height="16" fill="white"/>
</clipPath>
<clipPath id="clip1_2_2270">
<rect width="22" height="16" rx="2" fill="white"/>
</clipPath>
</defs>
</svg>
