<svg width="22" height="16" viewBox="0 0 22 16" fill="none" xmlns="http://www.w3.org/2000/svg">
<g clip-path="url(#clip0_2_2256)">
<g clip-path="url(#clip1_2_2256)">
<rect width="22" height="16" rx="2" fill="#1A47B8"/>
<path fill-rule="evenodd" clip-rule="evenodd" d="M0 16H22V2.13333L0 13.8667V16Z" fill="#249F58"/>
<path fill-rule="evenodd" clip-rule="evenodd" d="M4.71232 5.57867L3.17232 6.40321L3.46565 4.65707L2.22108 3.41974L3.94232 3.16694L4.71232 1.57761L5.48127 3.16694L7.20251 3.41974L5.95584 4.65707L6.25127 6.40214" fill="#FFDA2C"/>
<path fill-rule="evenodd" clip-rule="evenodd" d="M0 14.9333L22 3.2V-1.06667L0 10.6667V14.9333Z" fill="white"/>
<path fill-rule="evenodd" clip-rule="evenodd" d="M0 17.0667L22 5.33333V1.06667L0 12.8V17.0667Z" fill="white"/>
<path fill-rule="evenodd" clip-rule="evenodd" d="M0 16L22 4.26667V0L0 11.7333V16Z" fill="#F93939"/>
</g>
</g>
<defs>
<clipPath id="clip0_2_2256">
<rect width="22" height="16" fill="white"/>
</clipPath>
<clipPath id="clip1_2_2256">
<rect width="22" height="16" rx="2" fill="white"/>
</clipPath>
</defs>
</svg>
