<svg width="22" height="16" viewBox="0 0 22 16" fill="none" xmlns="http://www.w3.org/2000/svg">
<g clip-path="url(#clip0_2_2231)">
<g clip-path="url(#clip1_2_2231)">
<rect width="22" height="16" rx="2" fill="#1A47B8"/>
<path d="M19.9048 0H2.09524C0.93807 0 0 0.955126 0 2.13333V13.8667C0 15.0449 0.93807 16 2.09524 16H19.9048C21.0619 16 22 15.0449 22 13.8667V2.13333C22 0.955126 21.0619 0 19.9048 0Z" fill="#1A47B8"/>
<path fill-rule="evenodd" clip-rule="evenodd" d="M15.7143 4.26667V5.33334H16.7619V4.26667H15.7143ZM17.8095 6.4V7.46667H18.8571V6.4H17.8095ZM13.619 7.46667V8.53334H14.6667V7.46667H13.619ZM15.7143 11.7333V12.8H16.7619V11.7333H15.7143Z" fill="#F93939"/>
<path d="M9.42858 1.06667H2.09524C1.51666 1.06667 1.04762 1.54423 1.04762 2.13333V7.46667C1.04762 8.05577 1.51666 8.53333 2.09524 8.53333H9.42858C10.0072 8.53333 10.4762 8.05577 10.4762 7.46667V2.13333C10.4762 1.54423 10.0072 1.06667 9.42858 1.06667Z" fill="white"/>
<path fill-rule="evenodd" clip-rule="evenodd" d="M5.2381 5.33333H2.09524V4.26666H5.2381V2.13333H6.28571V4.26666H9.42857V5.33333H6.28571V7.46666H5.2381V5.33333ZM7.85714 6.4V7.46666H9.42857V6.4H7.85714ZM7.85714 2.13333V3.2H9.42857V2.13333H7.85714ZM2.09524 6.4V7.46666H3.66667V6.4H2.09524ZM2.09524 2.13333V3.2H3.66667V2.13333H2.09524Z" fill="#F93939"/>
</g>
</g>
<defs>
<clipPath id="clip0_2_2231">
<rect width="22" height="16" fill="white"/>
</clipPath>
<clipPath id="clip1_2_2231">
<rect width="22" height="16" rx="2" fill="white"/>
</clipPath>
</defs>
</svg>
