<svg width="22" height="16" viewBox="0 0 22 16" fill="none" xmlns="http://www.w3.org/2000/svg">
<g clip-path="url(#clip0_2_2149)">
<g clip-path="url(#clip1_2_2149)">
<rect width="22" height="16" rx="2" fill="#AF010D"/>
<path fill-rule="evenodd" clip-rule="evenodd" d="M12.5714 3.2L14.6667 5.33333C14.6667 5.33333 12.5714 4.26666 11.5238 5.33333L10.4762 6.4H13.6191L18.8571 9.6L16.7619 6.4H18.8571C18.8571 6.4 18.8571 5.33333 17.8095 4.26666C16.7619 3.2 15.7143 3.2 15.7143 3.2V2.13333L14.6667 3.2H12.5714Z" fill="#FFDA2C"/>
<path fill-rule="evenodd" clip-rule="evenodd" d="M0 0L22 16H0V0Z" fill="#151515"/>
<path d="M5.76191 8.53333C6.0512 8.53333 6.28572 8.29455 6.28572 8C6.28572 7.70545 6.0512 7.46667 5.76191 7.46667C5.47262 7.46667 5.2381 7.70545 5.2381 8C5.2381 8.29455 5.47262 8.53333 5.76191 8.53333Z" fill="white"/>
<path d="M3.66666 10.6667C3.95595 10.6667 4.19047 10.4279 4.19047 10.1333C4.19047 9.83878 3.95595 9.6 3.66666 9.6C3.37737 9.6 3.14285 9.83878 3.14285 10.1333C3.14285 10.4279 3.37737 10.6667 3.66666 10.6667Z" fill="white"/>
<path d="M7.85714 10.6667C8.14643 10.6667 8.38095 10.4279 8.38095 10.1333C8.38095 9.83878 8.14643 9.6 7.85714 9.6C7.56785 9.6 7.33333 9.83878 7.33333 10.1333C7.33333 10.4279 7.56785 10.6667 7.85714 10.6667Z" fill="white"/>
<path d="M5.76191 13.8667C6.0512 13.8667 6.28572 13.6279 6.28572 13.3333C6.28572 13.0388 6.0512 12.8 5.76191 12.8C5.47262 12.8 5.2381 13.0388 5.2381 13.3333C5.2381 13.6279 5.47262 13.8667 5.76191 13.8667Z" fill="white"/>
<path d="M6.80953 12.8C7.09882 12.8 7.33334 12.5612 7.33334 12.2667C7.33334 11.9721 7.09882 11.7333 6.80953 11.7333C6.52024 11.7333 6.28572 11.9721 6.28572 12.2667C6.28572 12.5612 6.52024 12.8 6.80953 12.8Z" fill="white"/>
</g>
</g>
<defs>
<clipPath id="clip0_2_2149">
<rect width="22" height="16" fill="white"/>
</clipPath>
<clipPath id="clip1_2_2149">
<rect width="22" height="16" rx="2" fill="white"/>
</clipPath>
</defs>
</svg>
