<svg width="22" height="16" viewBox="0 0 22 16" fill="none" xmlns="http://www.w3.org/2000/svg">
<g clip-path="url(#clip0_2_2128)">
<g clip-path="url(#clip1_2_2128)">
<rect width="22" height="16" rx="2" fill="#F93939"/>
<path fill-rule="evenodd" clip-rule="evenodd" d="M0 0H22V8H0V0Z" fill="#1A47B8"/>
<path fill-rule="evenodd" clip-rule="evenodd" d="M0 0V16L10 7.98244L0 0Z" fill="white"/>
<path fill-rule="evenodd" clip-rule="evenodd" d="M4.485 8.485C5.355 8.43 6 8.235 6 8C6 7.766 5.355 7.57 4.485 7.515C4.43 6.645 4.235 6 4 6C3.766 6 3.57 6.645 3.515 7.515C2.645 7.57 2 7.765 2 8C2 8.234 2.645 8.43 3.515 8.485C3.569 9.355 3.765 10 4 10C4.234 10 4.43 9.355 4.485 8.485Z" fill="#FFDA2C"/>
<path d="M7.5 9C7.77614 9 8 8.55228 8 8C8 7.44772 7.77614 7 7.5 7C7.22386 7 7 7.44772 7 8C7 8.55228 7.22386 9 7.5 9Z" fill="#FFDA2C"/>
<path d="M2.5 5C2.77614 5 3 4.77614 3 4.5C3 4.22386 2.77614 4 2.5 4C2.22386 4 2 4.22386 2 4.5C2 4.77614 2.22386 5 2.5 5Z" fill="#FFDA2C"/>
<path d="M2.5 12C2.77614 12 3 11.7761 3 11.5C3 11.2239 2.77614 11 2.5 11C2.22386 11 2 11.2239 2 11.5C2 11.7761 2.22386 12 2.5 12Z" fill="#FFDA2C"/>
</g>
</g>
<defs>
<clipPath id="clip0_2_2128">
<rect width="22" height="16" fill="white"/>
</clipPath>
<clipPath id="clip1_2_2128">
<rect width="22" height="16" rx="2" fill="white"/>
</clipPath>
</defs>
</svg>
