<svg width="22" height="16" viewBox="0 0 22 16" fill="none" xmlns="http://www.w3.org/2000/svg">
<g clip-path="url(#clip0_2_2074)">
<g clip-path="url(#clip1_2_2074)">
<rect width="22" height="16" rx="2" fill="#F93939"/>
<path d="M19.9048 0H2.09524C0.93807 0 0 0.955126 0 2.13333V13.8667C0 15.0449 0.93807 16 2.09524 16H19.9048C21.0619 16 22 15.0449 22 13.8667V2.13333C22 0.955126 21.0619 0 19.9048 0Z" fill="#F93939"/>
<path fill-rule="evenodd" clip-rule="evenodd" d="M0 0H11.5238V8.53333H0V0Z" fill="#232C80"/>
<path opacity="0.5" fill-rule="evenodd" clip-rule="evenodd" d="M5.23809 2.13333H6.28571V3.2H5.23809V2.13333ZM7.33333 3.2H8.38095V4.26666H7.33333V3.2ZM6.28571 4.26666H7.33333V5.33333H6.28571V4.26666ZM5.23809 5.33333H6.28571V6.4H5.23809V5.33333ZM4.19048 3.2H5.23809V4.26666H4.19048V3.2Z" fill="white"/>
</g>
</g>
<defs>
<clipPath id="clip0_2_2074">
<rect width="22" height="16" fill="white"/>
</clipPath>
<clipPath id="clip1_2_2074">
<rect width="22" height="16" rx="2" fill="white"/>
</clipPath>
</defs>
</svg>
