<svg width="22" height="16" viewBox="0 0 22 16" fill="none" xmlns="http://www.w3.org/2000/svg">
<g clip-path="url(#clip0_2_2067)">
<rect width="22" height="16" rx="2" fill="white"/>
<path fill-rule="evenodd" clip-rule="evenodd" d="M0 8H22V16H0V8Z" fill="#3A99FF"/>
<path fill-rule="evenodd" clip-rule="evenodd" d="M8.38095 4.26666H13.619V5.33333L11 6.4L8.38095 5.33333V4.26666Z" fill="#D4AF2C"/>
<path fill-rule="evenodd" clip-rule="evenodd" d="M13.619 9.06666C13.619 7.59466 12.4457 6.39999 11 6.39999C9.55428 6.39999 8.38095 7.59466 8.38095 9.06666C8.38095 10.5387 9.55428 11.7333 11 11.7333C12.4457 11.7333 13.619 10.5387 13.619 9.06666ZM11 10.6667C11.8674 10.6667 12.5714 9.71199 12.5714 8.53333C12.5714 7.35466 11.8674 6.39999 11 6.39999C10.1326 6.39999 9.42857 7.35466 9.42857 8.53333C9.42857 9.71199 10.1326 10.6667 11 10.6667Z" fill="#249F58"/>
<path d="M11 9.59999C11.2893 9.59999 11.5238 9.12243 11.5238 8.53333C11.5238 7.94422 11.2893 7.46666 11 7.46666C10.7107 7.46666 10.4762 7.94422 10.4762 8.53333C10.4762 9.12243 10.7107 9.59999 11 9.59999Z" fill="#D4AF2C"/>
</g>
<defs>
<clipPath id="clip0_2_2067">
<rect width="22" height="16" fill="white"/>
</clipPath>
</defs>
</svg>
