<svg width="22" height="16" viewBox="0 0 22 16" fill="none" xmlns="http://www.w3.org/2000/svg">
<g clip-path="url(#clip0_2_2061)">
<g clip-path="url(#clip1_2_2061)">
<rect width="22" height="16" rx="2" fill="#FFDA2C"/>
<path fill-rule="evenodd" clip-rule="evenodd" d="M0 11.7333V16H22V11.7333H0ZM0 0V4.26667H22V0H0Z" fill="#00B731"/>
<path fill-rule="evenodd" clip-rule="evenodd" d="M0 0V16.0352L7.33333 8L0 0Z" fill="#F93939"/>
<path fill-rule="evenodd" clip-rule="evenodd" d="M11 8.98134L9.80047 9.62454L10.0309 8.26454L9.05981 7.30134L10.4008 7.104L11 5.86667L11.5992 7.104L12.9402 7.30134L11.9701 8.26454L12.2006 9.62454L11 8.98134ZM17.2857 8.98134L16.0862 9.62454L16.3167 8.26454L15.3455 7.30134L16.6865 7.104L17.2857 5.86667L17.885 7.104L19.2259 7.30134L18.2558 8.26454L18.4863 9.62454" fill="#151515"/>
</g>
</g>
<defs>
<clipPath id="clip0_2_2061">
<rect width="22" height="16" fill="white"/>
</clipPath>
<clipPath id="clip1_2_2061">
<rect width="22" height="16" rx="2" fill="white"/>
</clipPath>
</defs>
</svg>
