<svg width="22" height="16" viewBox="0 0 22 16" fill="none" xmlns="http://www.w3.org/2000/svg">
<g clip-path="url(#clip0_2_2057)">
<rect width="22" height="16" rx="2" fill="#249F58"/>
<path fill-rule="evenodd" clip-rule="evenodd" d="M16.762 10.6667V9.60001H5.23821L7.33344 10.6667H13.6192C13.6192 11.2555 14.3232 11.7333 15.1906 11.7333C16.058 11.7333 16.762 11.2555 16.762 10.6667ZM9.14582 4.16641C9.13325 4.16641 9.1144 4.17281 9.0903 4.18775C9.03373 4.22615 8.92268 4.34455 8.91849 4.48108C8.91535 4.55895 8.90068 4.55895 8.94992 4.60908C8.98554 4.66028 9.02325 4.65601 9.09449 4.61655C9.13639 4.58455 9.15001 4.56641 9.16468 4.51415C9.18144 4.42881 9.07354 4.55681 9.05992 4.45868C9.03582 4.36908 9.10497 4.33068 9.16992 4.24535C9.17201 4.20268 9.17201 4.17068 9.14582 4.16855V4.16641ZM10.1966 4.17175C10.1756 4.17601 10.1515 4.20375 10.117 4.26561C10.0929 4.33175 9.98706 4.43201 10.0646 4.63895C10.1253 4.77015 10.1515 4.98241 10.1233 5.22028C10.0793 5.28748 10.0709 5.31095 10.0133 5.37815C9.93363 5.46668 9.84563 5.44428 9.78068 5.41015C9.71782 5.36748 9.66963 5.34615 9.64135 5.21175C9.64659 4.99841 9.65916 4.64428 9.6204 4.56961C9.56382 4.45441 9.46954 4.49495 9.42973 4.53015C9.23801 4.71148 9.14268 5.01335 9.08401 5.25548C9.03163 5.43041 8.97401 5.37921 8.93421 5.30881C8.83678 5.21495 8.82944 4.48748 8.71211 4.60801C8.52354 5.15628 8.82001 5.75681 9.0264 5.69815C9.17306 5.76215 9.26735 5.47415 9.32811 5.15948C9.37001 5.07095 9.40144 5.06028 9.4224 5.10615C9.41716 5.52428 9.45382 5.61815 9.55859 5.74401C9.79325 5.92961 9.98811 5.76748 10.0038 5.75255L10.1872 5.56695C10.2291 5.52428 10.2814 5.52001 10.3391 5.55841C10.3956 5.61175 10.3883 5.70028 10.5067 5.76108C10.6093 5.80375 10.8241 5.77175 10.8733 5.68321C10.9414 5.56588 10.9572 5.52535 10.9886 5.48055C11.0368 5.41655 11.1195 5.44535 11.1195 5.46561C11.1122 5.50295 11.064 5.54028 11.0965 5.60428C11.1541 5.64695 11.1677 5.61921 11.2013 5.60961C11.3207 5.55201 11.4108 5.28748 11.4108 5.28748C11.416 5.18935 11.3615 5.19681 11.327 5.21708C11.2798 5.24588 11.2777 5.25548 11.2327 5.28428C11.173 5.29281 11.0598 5.33228 11.0043 5.24375C10.9467 5.13708 10.9467 4.98988 10.9027 4.88108C10.9027 4.87468 10.8262 4.71361 10.8964 4.70401C10.931 4.71041 11.0085 4.73068 11.02 4.66561C11.0577 4.60161 10.9393 4.42028 10.8587 4.33068C10.7895 4.25281 10.6932 4.24321 10.5999 4.32215C10.5339 4.38401 10.5444 4.45228 10.5308 4.51735C10.5151 4.59201 10.5182 4.68481 10.5936 4.78401C10.6586 4.91415 10.777 5.08268 10.7372 5.31948C10.7372 5.31948 10.6691 5.43255 10.5486 5.41761C10.4962 5.40695 10.4145 5.38561 10.3705 5.05495C10.3391 4.80641 10.3789 4.45761 10.2762 4.29441C10.2521 4.23361 10.2322 4.17388 10.1987 4.17708L10.1966 4.17175ZM9.86344 4.19948C9.83201 4.20268 9.79744 4.24001 9.76916 4.31148C9.74506 4.36695 9.71468 4.65281 9.71992 4.65281C9.69897 4.73815 9.80687 4.77441 9.85611 4.66561C9.92944 4.46295 9.92944 4.37761 9.93363 4.29441C9.92316 4.23041 9.89487 4.19841 9.86344 4.20055V4.19948ZM11.0923 4.22081C11.0609 4.22508 11.0347 4.24428 11.0253 4.29335C11.0116 4.40641 11.019 4.46935 11.0378 4.56428C11.0514 4.62828 11.1426 4.73281 11.1866 4.79468C11.3993 5.08588 11.6056 5.37815 11.8026 5.68001C11.834 5.90615 11.855 6.12588 11.8707 6.34561C11.9042 6.82561 11.9126 7.42295 11.8843 7.92961C11.9723 7.93281 12.1148 7.78348 12.164 7.56695C12.1954 7.26401 12.1535 6.64961 12.1493 6.47041L12.1389 6.21655C12.3693 6.60055 12.5914 7.00588 12.8093 7.44961C12.89 7.41121 12.8722 6.95361 12.8261 6.88961C12.6501 6.50561 12.4071 6.12588 12.3306 5.97975C12.3023 5.92641 12.207 5.78028 12.0949 5.61068C12.0739 5.36748 12.0509 5.16268 12.0362 5.10081C11.9995 4.84481 12.1389 5.12961 12.12 4.98135C12.0739 4.72535 11.9356 4.55255 11.7722 4.31788C11.7198 4.24321 11.7198 4.22615 11.6392 4.33708C11.592 4.44908 11.592 4.54295 11.6077 4.63041C11.5847 4.59841 11.5585 4.56215 11.5208 4.51521L11.2536 4.28481C11.217 4.25815 11.1457 4.21761 11.0923 4.22081ZM14.7338 4.26028C14.7181 4.25815 14.7024 4.26561 14.6814 4.29441C14.6448 4.32641 14.606 4.38721 14.6081 4.46508C14.6154 4.59841 14.6395 4.73601 14.6479 4.87041L14.6584 4.92375C14.6437 4.90668 14.6312 4.89175 14.6238 4.88535C14.3651 4.60801 14.7422 4.83841 14.5735 4.62615C14.4321 4.46615 14.3902 4.41708 14.2697 4.32108C14.2069 4.28268 14.1713 4.20588 14.1513 4.33601C14.143 4.45015 14.1346 4.58348 14.1409 4.67948C14.1409 4.73281 14.1964 4.83415 14.2435 4.89281C14.4153 5.10935 14.5913 5.33868 14.7673 5.57761C14.8051 6.06508 14.8145 6.51201 14.8512 7.00055C14.847 7.20961 14.7841 7.48695 14.7254 7.51255C14.7254 7.51255 14.6333 7.56588 14.5725 7.50721C14.5274 7.48908 14.3504 7.20535 14.3504 7.20535C14.2593 7.12001 14.1985 7.14455 14.1346 7.20535C13.9565 7.38028 13.8748 7.70881 13.7543 7.93495C13.7229 7.98508 13.6359 8.02881 13.5385 7.93068C13.2902 7.58508 13.4337 7.09335 13.4044 7.22028C13.1844 7.47415 13.2808 7.89441 13.3311 7.98508C13.4044 8.13441 13.4631 8.23041 13.6034 8.30188C13.7344 8.39788 13.8339 8.33921 13.8905 8.26988C14.0204 8.13335 14.0225 7.78241 14.0833 7.71308C14.1252 7.58508 14.2331 7.60641 14.2854 7.66401C14.3378 7.73868 14.3965 7.78668 14.4709 7.82721C14.5924 7.93601 14.737 7.95521 14.8794 7.85601C14.9769 7.80055 15.0408 7.72801 15.0973 7.58508C15.1602 7.41868 15.1288 6.54401 15.1152 6.05761L15.3875 6.45868C15.4253 6.88535 15.4431 7.30668 15.4294 7.70988C15.4211 7.78988 15.705 7.47095 15.7018 7.31948C15.7018 7.18828 15.7039 7.06775 15.7018 6.95681C15.8412 7.18081 15.9742 7.40801 16.0999 7.63948C16.1785 7.59681 16.1523 7.14561 16.1031 7.08481C15.9711 6.85868 15.8013 6.61548 15.6704 6.42561C15.6442 6.18775 15.6096 5.90721 15.5929 5.82081C15.5688 5.68641 15.5436 5.48481 15.5059 5.32588C15.4954 5.26508 15.464 5.06668 15.4745 5.04855C15.4892 5.00268 15.5478 5.04855 15.5761 4.99735C15.618 4.94935 15.4273 4.44268 15.3299 4.29975C15.2953 4.23575 15.2314 4.25708 15.1539 4.36375C15.0806 4.43201 15.1078 4.58988 15.1351 4.74028C15.2063 5.12428 15.2713 5.51255 15.3215 5.90295C15.2273 5.75895 15.112 5.58615 14.9989 5.42081L14.9842 5.34615C14.9842 5.33761 14.9695 5.03148 14.9559 4.95895C14.9528 4.92908 14.9454 4.92055 14.9769 4.92481C15.0083 4.95255 15.0125 4.95361 15.0324 4.96321C15.0659 4.96748 15.0953 4.91201 15.0743 4.85975L14.7705 4.29015C14.76 4.27628 14.7453 4.26348 14.7286 4.26135L14.7338 4.26028ZM5.33668 4.27095C5.27906 4.26881 5.2183 4.30295 5.2424 4.37228C5.22773 4.40961 5.35135 4.53548 5.37335 4.60481C5.39116 4.65495 5.3524 4.81281 5.3943 4.82881C5.43097 4.84481 5.4823 4.71788 5.50116 4.60161C5.51163 4.53761 5.5043 4.31788 5.35763 4.27308C5.3503 4.27095 5.34297 4.27095 5.33459 4.26988L5.33668 4.27095ZM16.0433 4.27095C16.0297 4.27308 16.014 4.29228 15.991 4.34561C15.9333 4.44161 15.9134 4.61228 15.9365 4.76161C16.0727 5.71095 16.1774 6.63041 16.1984 7.47095C16.1858 7.55201 16.1816 7.59468 16.146 7.69495C16.0643 7.80161 15.9742 7.93388 15.8893 7.99788C15.8055 8.06188 15.6253 8.12375 15.5667 8.17068C15.3781 8.27948 15.3781 8.40535 15.529 8.41068C15.7888 8.37868 16.0968 8.35735 16.3084 8.03201C16.365 7.94135 16.432 7.69388 16.4341 7.54135C16.4551 6.65601 16.4236 5.78668 16.2927 5.14561C16.2843 5.08161 16.2571 4.93975 16.2675 4.92161C16.2833 4.87681 16.3681 4.92481 16.3985 4.87468C16.4435 4.82775 16.1785 4.48321 16.0863 4.33601C16.0674 4.29975 16.0549 4.26881 16.0402 4.27201L16.0433 4.27095ZM13.3164 4.28588C13.3059 4.28801 13.2913 4.30508 13.2619 4.34455C13.1886 4.58561 13.1634 4.78188 13.1917 4.93335C13.3803 5.92535 13.5689 6.82668 13.5395 7.77068C13.6275 7.77068 13.7302 7.56481 13.7742 7.36001C13.7983 7.07735 13.7574 6.90561 13.7512 6.74135C13.7438 6.57495 13.5668 5.23095 13.5312 5.10615C13.4872 4.86935 13.703 5.07415 13.6799 4.93761C13.6045 4.76268 13.418 4.51095 13.3614 4.35841C13.3405 4.31788 13.3363 4.28055 13.3195 4.28375L13.3164 4.28588ZM6.68078 4.30508C6.65982 4.30935 6.63573 4.32855 6.6284 4.35841C6.62316 4.37975 6.63678 4.41495 6.61792 4.42561C6.60744 4.43628 6.56763 4.42881 6.56973 4.37228C6.56973 4.35308 6.55611 4.33388 6.54878 4.32215C6.5404 4.31788 6.53516 4.31681 6.52049 4.31681C6.50268 4.31681 6.50268 4.32215 6.49325 4.33815C6.48906 4.35308 6.48278 4.36801 6.48278 4.38508C6.48068 4.40641 6.4723 4.41175 6.45868 4.41495C6.44192 4.41495 6.44506 4.41708 6.43249 4.40748C6.42201 4.40001 6.41363 4.39681 6.41363 4.38188C6.41363 4.36588 6.40944 4.33921 6.40525 4.33068C6.39792 4.32001 6.3864 4.31575 6.37382 4.31255C6.30468 4.31255 6.30049 4.39575 6.30363 4.42561C6.2984 4.43201 6.2963 4.57495 6.39059 4.61548C6.5163 4.67735 6.75516 4.65068 6.74678 4.44268C6.74678 4.42455 6.74154 4.36268 6.73944 4.34668C6.72687 4.31468 6.70278 4.30401 6.67973 4.30721L6.68078 4.30508ZM8.38421 4.30721C8.34021 4.30935 8.3004 4.32215 8.26897 4.33921C8.18516 4.42135 8.1642 4.55255 8.23125 4.63468C8.29411 4.66668 8.36011 4.73068 8.31716 4.76801C8.13487 4.96535 7.6603 5.29708 7.63621 5.35788V5.36428H7.6404V5.36641C7.66449 5.38241 7.96201 5.38241 7.99449 5.36641H7.99659C8.09925 5.32695 8.58325 4.76375 8.58325 4.76375C8.55811 4.74241 8.53506 4.72535 8.50992 4.70295C8.48268 4.67948 8.48582 4.65601 8.50992 4.63255C8.62935 4.56215 8.59163 4.40535 8.52878 4.33388C8.4764 4.31041 8.42821 4.30188 8.38421 4.30508V4.30721ZM12.8366 4.30721C12.824 4.31041 12.8083 4.32855 12.7842 4.38188C12.7266 4.47788 12.6878 4.64321 12.6931 4.79788C12.8167 5.67255 12.8544 6.43735 12.9361 7.31201C12.9424 7.39735 12.9298 7.51895 12.8753 7.56801C12.67 7.78561 12.3756 8.05228 12.0551 8.17601C12.0205 8.21548 12.141 8.38295 12.296 8.38295C12.5558 8.35095 12.7842 8.20375 12.9979 7.81228C13.0534 7.72161 13.153 7.52641 13.1551 7.37495C13.176 6.48748 13.1132 5.79628 12.9812 5.15628C12.9738 5.09228 12.9791 5.01761 12.9895 5.00055C13.0063 4.97921 13.0629 5.00055 13.0943 4.95041C13.1383 4.90348 12.9749 4.52055 12.8827 4.37441C12.8638 4.33708 12.8533 4.30721 12.8366 4.30828V4.30721ZM5.93906 4.33601C5.90344 4.34028 5.86992 4.36801 5.85316 4.41068C5.84792 4.54935 5.84687 4.68801 5.86363 4.81815C5.92649 5.04535 5.9443 5.24481 5.97468 5.47628C5.98516 5.78775 5.79868 5.61068 5.80706 5.45708C5.84897 5.25655 5.83849 4.94188 5.80078 4.86188C5.76935 4.78188 5.73582 4.76268 5.66249 4.77655C5.60487 4.77228 5.45506 4.93655 5.41316 5.21388C5.41316 5.21388 5.37754 5.35468 5.36287 5.48055C5.34192 5.62241 5.24973 5.72375 5.18478 5.46135C5.12925 5.26935 5.09573 4.80001 5.00249 4.90881C4.97525 5.27575 4.94382 5.92215 5.24973 5.98828C5.62059 6.02455 5.41525 5.35041 5.54935 5.22775C5.57554 5.16908 5.62268 5.16801 5.62582 5.24375V5.81655C5.62163 6.00215 5.74106 6.05761 5.83535 6.09601C5.93278 6.08855 5.99668 6.09175 6.0344 6.18775L6.08154 7.17975C6.08154 7.17975 6.30573 7.24375 6.3162 6.62188C6.32668 6.25601 6.24287 5.94988 6.29211 5.87841C6.29421 5.80801 6.38221 5.80375 6.44297 5.83895C6.5404 5.90828 6.58335 5.99361 6.73421 5.95948C6.96468 5.89548 7.10087 5.78241 7.10401 5.60321C7.09354 5.43255 7.07259 5.26188 6.99925 5.09121C7.00973 5.06135 6.95735 4.98135 6.96782 4.95041C7.00763 5.01441 7.07049 5.01015 7.08306 4.95041C7.04535 4.81921 6.98459 4.69441 6.88611 4.64108C6.80544 4.56641 6.68706 4.58241 6.64306 4.73388C6.62211 4.90881 6.70592 5.11575 6.83163 5.28535C6.85678 5.35148 6.89449 5.46135 6.87773 5.56055C6.81173 5.59895 6.74573 5.58188 6.68916 5.52321C6.68916 5.52321 6.50792 5.38455 6.50792 5.35255C6.55716 5.03788 6.5184 5.00055 6.49221 4.91521C6.47335 4.79361 6.41678 4.75521 6.37173 4.67201C6.32563 4.62188 6.26382 4.62188 6.23554 4.67201C6.15382 4.81388 6.19154 5.12001 6.25021 5.25548C6.29211 5.38135 6.35706 5.46028 6.32668 5.46028C6.30154 5.52961 6.24916 5.51361 6.21144 5.43148C6.15906 5.26081 6.14649 5.00908 6.14649 4.89495C6.13078 4.75415 6.11297 4.45228 6.02078 4.37548C5.99668 4.34135 5.9684 4.32961 5.94011 4.33281L5.93906 4.33601ZM7.2402 4.33601C7.2224 4.34028 7.20144 4.35095 7.17735 4.35735C7.09878 4.38188 7.02544 4.45121 7.04849 4.58561C7.14278 5.16161 7.20249 5.60215 7.29573 6.17815C7.30935 6.24641 7.25382 6.33495 7.18259 6.32748C7.06106 6.24215 7.03068 6.07148 6.82325 6.08001C6.6724 6.08001 6.50059 6.24855 6.47963 6.40855C6.45449 6.53655 6.44611 6.67521 6.47963 6.78615C6.5844 6.91415 6.71221 6.90135 6.82325 6.87148C6.9144 6.83415 6.99087 6.74348 7.0223 6.76481C7.04325 6.80001 7.02021 7.09975 6.59278 7.33015C6.32878 7.45175 6.11925 7.47948 6.00611 7.26188C5.93697 7.12535 6.0124 6.60481 5.84059 6.72428C5.33144 8.05975 7.03173 8.24535 7.22135 6.77975C7.23392 6.73708 7.27059 6.69655 7.29782 6.70721C7.3083 6.71255 7.31878 6.72855 7.32297 6.75841C7.28316 8.08535 6.00716 8.17708 5.79135 7.75895C5.73687 7.66081 5.72116 7.44108 5.71592 7.31095C5.70544 7.23095 5.68659 7.18508 5.66354 7.16695C5.61116 7.12748 5.54201 7.23095 5.52735 7.40908C5.5064 7.55308 5.51163 7.59255 5.51163 7.73121C5.58078 8.77975 7.2224 8.32855 7.48954 7.46455C7.62154 7.01655 7.4864 6.67841 7.53144 6.63681L7.53459 6.63468H7.53773L7.54297 6.63255C7.7064 6.81175 7.93478 6.65388 7.98506 6.59308C8.00601 6.56108 8.06049 6.53975 8.09821 6.58241C8.22392 6.67415 8.44811 6.63041 8.4942 6.46508C8.52144 6.30508 8.54449 6.14081 8.54973 5.96908C8.46592 5.99575 8.39887 6.01495 8.37163 6.04375C8.36535 6.05121 8.36116 6.05975 8.35906 6.06828L8.33811 6.21015C8.33811 6.21548 8.33601 6.21868 8.33392 6.22081C8.33078 6.22828 8.32344 6.23361 8.31925 6.23681C8.28992 6.25281 8.23859 6.24428 8.23544 6.20055C8.19668 6.01921 8.0343 5.99575 7.93582 6.27841C7.86982 6.33175 7.74725 6.34241 7.73678 6.26135C7.75249 6.07148 7.67706 6.04588 7.52725 6.13548L7.38268 5.02615C7.44554 5.02295 7.50211 5.06881 7.56078 4.99628C7.49792 4.80001 7.36697 4.40108 7.29259 4.36268H7.29049L7.28001 4.35201C7.28001 4.34988 7.27687 4.34881 7.27478 4.34775L7.27059 4.34135C7.2664 4.34135 7.2622 4.33921 7.26011 4.33815C7.25278 4.33601 7.24649 4.33601 7.23916 4.33601H7.2402ZM12.3128 4.34028C12.2478 4.33815 12.1766 4.37975 12.2038 4.46295C12.1871 4.50881 12.3432 4.66241 12.3683 4.74561C12.4133 4.87361 12.3337 4.99841 12.3809 5.01655C12.4249 5.03575 12.4856 4.88321 12.5066 4.74135C12.5338 4.62615 12.4542 4.39148 12.339 4.34348L12.3128 4.34135V4.34028ZM8.36011 4.48001C8.38944 4.47788 8.42506 4.50561 8.44392 4.54401C8.46173 4.58668 8.4523 4.62615 8.42297 4.63361C8.39154 4.64108 8.35173 4.61441 8.33287 4.57175C8.31401 4.52908 8.3224 4.48961 8.35382 4.48215H8.36011V4.48001ZM15.6903 4.67415C15.6306 4.67201 15.5646 4.71681 15.5918 4.80748C15.5772 4.85655 15.7175 5.02295 15.7416 5.11468C15.7626 5.17868 15.7102 5.38775 15.7521 5.40695C15.7919 5.42828 15.8464 5.26188 15.8673 5.10828C15.8799 5.02295 15.8192 4.72961 15.7154 4.67735C15.7081 4.67521 15.6997 4.67308 15.6913 4.67308L15.6903 4.67415ZM11.636 4.77655C11.6433 4.80108 11.6486 4.82561 11.6517 4.85121C11.6643 4.90455 11.6748 4.95788 11.6853 5.01335C11.6392 4.94721 11.6014 4.89388 11.5836 4.87468C11.4789 4.74668 11.5857 4.79148 11.636 4.77655ZM12.5715 5.24375C12.5485 5.24801 12.5265 5.26828 12.5192 5.30028C12.5129 5.31948 12.5275 5.35361 12.5087 5.36428C12.4982 5.37495 12.4563 5.36855 12.4594 5.31095C12.4594 5.29175 12.4458 5.27148 12.4385 5.26081C12.4301 5.25548 12.4249 5.25335 12.4102 5.25335C12.3924 5.25335 12.3924 5.25868 12.383 5.27468C12.3788 5.28961 12.3725 5.30455 12.3725 5.32268C12.3725 5.34401 12.3641 5.35041 12.3494 5.35468C12.3327 5.35468 12.3358 5.35468 12.3222 5.34721C12.3138 5.33655 12.3044 5.33441 12.3044 5.31948C12.3044 5.30348 12.3013 5.27895 12.296 5.26828C12.2887 5.25761 12.2782 5.25441 12.2646 5.25015C12.1965 5.25015 12.1913 5.33121 12.1954 5.36108C12.1913 5.36748 12.1881 5.51255 12.2824 5.55308C12.4102 5.61388 12.6491 5.58508 12.6386 5.37815C12.6386 5.36001 12.6333 5.29815 12.6323 5.28215C12.6187 5.25015 12.5946 5.23948 12.5726 5.24268L12.5715 5.24375ZM8.30773 5.28641C8.29306 5.28641 8.27211 5.29068 8.24801 5.30561C8.13592 5.36748 8.09297 5.55095 8.16421 5.65761C8.22706 5.75361 8.33182 5.71841 8.34544 5.71841C8.45544 5.73335 8.5204 5.50935 8.5204 5.50935C8.5204 5.50935 8.52354 5.44535 8.39468 5.56481C8.33811 5.57548 8.33182 5.55415 8.31716 5.52215C8.30459 5.46561 8.30668 5.40481 8.33287 5.34828C8.34544 5.31308 8.33287 5.29068 8.30773 5.28855V5.28641ZM14.3347 5.31521C14.2718 5.31201 14.2058 5.35361 14.188 5.44001C14.188 5.49121 14.2111 5.51895 14.2069 5.56588C14.2016 5.59255 14.1754 5.60855 14.1105 5.57868C14.121 5.56801 14.0686 5.49548 14.0686 5.49548C14.0193 5.46348 13.9533 5.49548 13.9093 5.52535C13.8853 5.57015 13.8674 5.64588 13.8947 5.72268C13.9659 5.85815 14.2121 6.08855 14.3294 6.09068C14.3315 5.96908 14.3431 5.80695 14.3504 5.70668C14.3525 5.66828 14.3609 5.62668 14.3975 5.61708C14.4332 5.60641 14.495 5.65335 14.495 5.61388C14.4887 5.53708 14.474 5.42188 14.4321 5.36855C14.4091 5.33655 14.3724 5.31735 14.3357 5.31521H14.3347ZM9.34487 5.73868L9.34173 5.74188C9.34173 5.74188 9.33963 5.74188 9.33859 5.74401C9.32601 5.75468 9.31135 5.77601 9.27887 5.79735C9.22335 5.86135 9.21392 5.90721 9.21601 6.03521C9.2202 6.04908 9.32078 6.33708 9.40773 6.53868C9.46639 6.74881 9.51982 6.98988 9.48106 7.21708C9.34487 7.51788 9.07249 7.78775 8.80744 7.93495C8.67125 7.97761 8.55601 7.96268 8.52459 7.93281C8.44706 7.87948 8.44601 7.78348 8.45125 7.76855V7.76535C8.67335 7.60748 8.92792 7.47948 9.12697 7.05388C9.18563 6.89068 9.20449 6.79255 9.14582 6.54188C9.12278 6.44588 9.09344 6.37121 9.03059 6.30295H9.03268C9.07039 6.28481 9.16887 6.35841 9.18459 6.31361C9.16049 6.19201 9.07982 6.03095 8.99078 5.94775C8.91116 5.87308 8.82316 5.86561 8.75192 5.93281C8.67021 5.97975 8.65344 6.14615 8.6922 6.29121C8.7362 6.40001 8.85459 6.41921 8.9384 6.64001C8.94049 6.65495 8.96668 6.80535 8.92478 6.86721C8.88916 6.97601 8.44811 7.33015 8.41668 7.35148L8.41354 7.35361L8.41144 7.35575H8.40935H8.40725V7.35255C8.40516 7.34401 8.40725 7.32055 8.40725 7.28535C8.40411 7.21921 8.43135 7.06881 8.42821 7.04215V7.04001C8.28154 7.13601 8.2323 7.42935 8.20611 7.51681C7.8363 7.77601 7.41725 7.96908 7.17525 8.23148C7.04954 8.43415 8.04268 8.00321 8.15792 7.95095L8.16106 7.95415C8.18411 7.97868 8.18516 8.06401 8.25116 8.14188C8.35592 8.28375 8.57382 8.37121 8.78754 8.31681C9.14582 8.18561 9.35325 7.93708 9.56278 7.66081C9.59211 7.61815 9.63925 7.58188 9.68325 7.61601C9.82678 7.94455 10.2437 8.17921 10.7812 8.20268C10.9069 8.04908 10.8472 7.97335 10.7969 7.94135C10.7812 7.93068 10.5297 7.83041 10.4899 7.73121C10.4658 7.63948 10.5255 7.55735 10.645 7.49655C10.9907 7.45388 11.3301 7.40588 11.6591 7.29815C11.6622 7.18508 11.7272 7.01761 11.7712 6.94401C11.8026 6.89388 11.8204 6.88855 11.8277 6.88215V6.88001H11.8298V6.87681V6.86615L11.7733 6.83201L10.6701 6.82775C10.6565 6.82241 10.6471 6.81708 10.6408 6.81175L10.6387 6.80855C10.6387 6.80855 10.6366 6.80855 10.6366 6.80641C10.6366 6.80428 10.6345 6.80428 10.6345 6.80428V6.80535V6.80321V6.80108V6.79895L10.6366 6.79575C10.6418 6.78935 10.6554 6.78188 10.6712 6.77441C10.9352 6.73921 11.4024 6.66135 11.4338 6.20375C11.4286 5.96481 11.3333 5.80908 11.0462 5.76641C10.8346 5.78241 10.6837 5.99041 10.7078 6.21868C10.6973 6.27948 10.7288 6.40001 10.6659 6.41388C10.2615 6.45228 9.81944 6.71041 9.80478 6.89601H9.80268H9.80059H9.79849C9.79849 6.89815 9.7964 6.89815 9.79535 6.89815H9.79116H9.78906H9.78487C9.75868 6.88961 9.72516 6.84481 9.7304 6.78401C9.71468 6.46401 9.61201 6.10135 9.45278 5.82401C9.39516 5.76535 9.36897 5.74188 9.3543 5.73868H9.35116H9.34801H9.34592H9.34487ZM10.4009 5.90721C10.3799 5.91148 10.3558 5.93068 10.3485 5.96268C10.3433 5.98401 10.359 6.01815 10.3401 6.02881C10.3296 6.03948 10.2877 6.03308 10.2898 5.97548C10.2898 5.95735 10.2762 5.93708 10.2689 5.92535C10.2605 5.92001 10.2553 5.91895 10.2416 5.91895C10.2238 5.91895 10.2228 5.92321 10.2133 5.93815C10.2081 5.95308 10.2029 5.97015 10.2029 5.98615C10.2008 6.00748 10.1924 6.01388 10.1788 6.01601C10.162 6.01601 10.1662 6.01921 10.1526 6.01068C10.1442 6.00215 10.1337 5.99788 10.1337 5.98295C10.1337 5.96695 10.1306 5.94028 10.1264 5.92961C10.1191 5.92215 10.1075 5.91895 10.095 5.91468C10.0248 5.91468 10.0216 5.99468 10.0248 6.02561C10.0195 6.03095 10.0164 6.17495 10.1107 6.21548C10.2364 6.27735 10.5402 6.24108 10.4669 6.04161C10.4669 6.02348 10.4616 5.96161 10.4606 5.94561C10.447 5.91361 10.4229 5.90295 10.3998 5.90615L10.4009 5.90721ZM14.6594 6.08535H14.649C14.649 6.08535 14.0602 6.51201 14.0466 6.52695C13.9879 6.58028 14.0173 6.76481 14.0466 6.74348C14.0885 6.75948 14.6804 6.35095 14.6689 6.30295C14.6951 6.30508 14.7076 6.09281 14.6584 6.08428L14.6594 6.08535ZM10.9572 6.14935C10.9802 6.14615 11.0116 6.15468 11.041 6.17068C11.086 6.19841 11.1143 6.23681 11.1091 6.26668V6.27095C11.107 6.27095 11.107 6.27095 11.107 6.27308V6.27521C11.107 6.27521 11.1049 6.27521 11.1049 6.27735C11.1049 6.27948 11.1017 6.28161 11.0996 6.28375C11.0787 6.30508 11.0305 6.30081 10.9844 6.27308C10.9404 6.24855 10.9142 6.20908 10.9163 6.18135V6.17815L10.9215 6.16748C10.9215 6.16748 10.9215 6.16535 10.9236 6.16428L10.9289 6.15788C10.9362 6.15255 10.9456 6.14721 10.9572 6.14721V6.14935ZM5.80497 6.25601C5.50116 6.26241 5.05382 6.66348 5.0423 6.88535L6.00611 6.41601C5.95373 6.33495 6.00297 6.26241 5.80497 6.25601ZM6.79287 6.39468C6.82221 6.39681 6.85363 6.41175 6.8704 6.45441C6.88506 6.49388 6.8704 6.53441 6.85259 6.55468V6.55788C6.83792 6.57495 6.79392 6.56855 6.76144 6.56855C6.72268 6.56641 6.70382 6.56001 6.68078 6.52801C6.66821 6.49068 6.70173 6.45548 6.71744 6.42988L6.72478 6.41921C6.73525 6.40855 6.7562 6.40001 6.77716 6.39788L6.79078 6.39575L6.79287 6.39468ZM14.5453 6.51948C14.4897 6.52588 14.4384 6.57815 14.4614 6.66135C14.4468 6.71041 14.5348 6.88215 14.5589 6.97281C14.5798 7.03681 14.5316 7.22135 14.5746 7.23948C14.6144 7.26081 14.7181 7.13281 14.715 6.96855C14.7254 6.88321 14.6856 6.57388 14.5819 6.52268C14.5693 6.51948 14.5568 6.51841 14.5442 6.51948H14.5453ZM7.96201 6.82241C7.91382 6.82561 7.87087 6.85121 7.89078 6.92055C7.88763 6.96961 8.02697 7.03041 8.0343 7.14455C8.05316 7.19361 8.00287 7.34721 8.04478 7.36001C8.08249 7.37601 8.13487 7.25335 8.15478 7.14241C8.16525 7.08055 8.10659 6.86508 8.00811 6.82561C7.9924 6.82135 7.97668 6.82028 7.96097 6.82135L7.96201 6.82241ZM9.93154 7.09548H9.94411C10.0677 7.12961 10.2479 7.13388 10.4051 7.14881C10.5339 7.15948 10.5968 7.25975 10.4784 7.30348C10.359 7.34401 10.2448 7.37815 10.2448 7.55095C10.2594 7.63628 10.2553 7.68108 10.2427 7.70028C10.2427 7.70348 10.2395 7.70561 10.2385 7.70668C10.2385 7.70668 10.2385 7.70881 10.2364 7.70881V7.71095H10.2333L10.2259 7.71415H10.2207C10.1924 7.71948 10.1515 7.69281 10.1212 7.67575C10.0478 7.62241 9.84354 7.49441 9.81421 7.21708C9.81001 7.15308 9.85611 7.09975 9.92944 7.09441L9.93154 7.09548ZM5.11878 7.30881C5.11144 7.30881 5.09782 7.33228 5.07687 7.35895C4.89459 7.65228 4.87782 8.09068 4.9784 8.22295C5.03078 8.28375 5.11878 8.31148 5.18373 8.29228C5.29897 8.24215 5.34821 8.00641 5.31992 7.92108C5.28325 7.86028 5.25287 7.85068 5.21516 7.90188C5.13449 8.06721 5.09992 7.95308 5.09468 7.85921C5.08211 7.68535 5.09887 7.52321 5.11773 7.39521C5.12821 7.33121 5.12821 7.30668 5.11773 7.30668L5.11878 7.30881ZM11.2966 7.69495C11.283 7.69495 11.2693 7.69708 11.2547 7.70561C11.2515 7.70561 11.1248 7.79095 11.0839 7.85281C11.0588 7.87201 11.063 7.88801 11.0693 7.92215C11.0881 7.96801 11.1216 7.95415 11.1614 7.93281C11.2138 7.92428 11.2379 7.95948 11.2348 8.02241C11.2107 8.10241 11.2453 8.13121 11.2453 8.13655C11.2453 8.14081 11.2945 8.18455 11.3532 8.15041C11.4757 8.10241 11.5522 8.05441 11.7251 8.01708C11.7701 8.01708 11.767 7.89335 11.6957 7.88908C11.6014 7.89335 11.5176 7.89975 11.4233 7.97441C11.3657 7.98721 11.3563 7.95095 11.3427 7.91895C11.328 7.84001 11.3762 7.78455 11.3657 7.72481C11.3678 7.72801 11.3364 7.69921 11.2955 7.69708L11.2966 7.69495ZM15.2524 7.84428L15.1686 7.85281C15.1309 7.86028 15.1183 7.87735 15.111 7.92428C15.1141 7.99361 15.156 7.99041 15.2 8.01815C15.2252 8.05015 15.2419 8.08001 15.1979 8.13548C15.156 8.17281 15.1277 8.19415 15.0858 8.23148C15.068 8.26561 15.0544 8.31681 15.1152 8.33388C15.2252 8.36588 15.4797 8.19735 15.4797 8.19521C15.5216 8.16321 15.507 8.10241 15.5038 8.10241C15.4787 8.07468 15.4242 8.09175 15.3886 8.08641C15.3708 8.08641 15.3153 8.07788 15.3404 8.02668C15.3634 7.99468 15.3718 7.97655 15.3875 7.93708C15.4033 7.89868 15.3875 7.87308 15.3268 7.85175C15.2953 7.84535 15.2744 7.84321 15.2503 7.84428H15.2524ZM13.7302 11.9616C14.0131 11.9755 14.2771 11.9648 14.5578 11.9787C14.6039 12.0171 14.5819 12.1067 14.5526 12.1216L14.5473 12.1237H14.5442H14.54L14.3033 12.1173V12.1035C14.2802 12.0373 14.1231 12.0416 14.0853 12.0928V12.096C14.0833 12.096 14.0822 12.0992 14.0822 12.1003L14.0801 12.1056V12.1184C13.9544 12.1344 13.8444 12.1141 13.7208 12.1099C13.6841 12.064 13.6893 11.9819 13.7313 11.9605L13.7302 11.9616Z" fill="white"/>
</g>
<defs>
<clipPath id="clip0_2_2057">
<rect width="22" height="16" fill="white"/>
</clipPath>
</defs>
</svg>
