<svg width="22" height="16" viewBox="0 0 22 16" fill="none" xmlns="http://www.w3.org/2000/svg">
<g clip-path="url(#clip0_2_2016)">
<g clip-path="url(#clip1_2_2016)">
<rect width="22" height="16" rx="2" fill="#1A47B8"/>
<path d="M22 0H0V8H22V0Z" fill="#F93939"/>
<path fill-rule="evenodd" clip-rule="evenodd" d="M0 0L10.4762 8L0 16V0Z" fill="white"/>
<path fill-rule="evenodd" clip-rule="evenodd" d="M1.04762 5.33333H3.14286L4.19048 6.39999L5.2381 5.33333H7.33334L5.2381 6.39999H3.14286L1.04762 5.33333Z" fill="#AE6A3E"/>
<path d="M4.19047 10.6667C4.76906 10.6667 5.23809 9.71153 5.23809 8.53333C5.23809 7.35512 4.76906 6.39999 4.19047 6.39999C3.61189 6.39999 3.14285 7.35512 3.14285 8.53333C3.14285 9.71153 3.61189 10.6667 4.19047 10.6667Z" fill="#3ECBF8"/>
<path fill-rule="evenodd" clip-rule="evenodd" d="M3.14286 7.46666V9.59999H4.19048H5.2381V7.46666L6.28572 9.59999L5.2381 10.6667H3.14286L2.09525 9.59999L3.14286 7.46666Z" fill="#FFDA2C"/>
</g>
</g>
<defs>
<clipPath id="clip0_2_2016">
<rect width="22" height="16" fill="white"/>
</clipPath>
<clipPath id="clip1_2_2016">
<rect width="22" height="16" rx="2" fill="white"/>
</clipPath>
</defs>
</svg>
