<svg width="22" height="16" viewBox="0 0 22 16" fill="none" xmlns="http://www.w3.org/2000/svg">
<g clip-path="url(#clip0_2_1999)">
<g clip-path="url(#clip1_2_1999)">
<rect width="22" height="16" rx="2" fill="#1A47B8"/>
<path fill-rule="evenodd" clip-rule="evenodd" d="M0 11H22V16H0V11Z" fill="#F93939"/>
<path fill-rule="evenodd" clip-rule="evenodd" d="M0 0H22V5H0V0Z" fill="white"/>
<path d="M6.80952 3.2H4.71428C4.1357 3.2 3.66666 3.67756 3.66666 4.26666V6.93333C3.66666 7.52243 4.1357 8 4.71428 8H6.80952C7.38811 8 7.85714 7.52243 7.85714 6.93333V4.26666C7.85714 3.67756 7.38811 3.2 6.80952 3.2Z" fill="#F93939"/>
<path d="M6.28571 3.2H5.23809C4.65951 3.2 4.19048 3.67756 4.19048 4.26666V6.4C4.19048 6.9891 4.65951 7.46666 5.23809 7.46666H6.28571C6.8643 7.46666 7.33333 6.9891 7.33333 6.4V4.26666C7.33333 3.67756 6.8643 3.2 6.28571 3.2Z" fill="#1A47B8"/>
<path fill-rule="evenodd" clip-rule="evenodd" d="M5.2381 4.26666H6.28572V5.33333H5.2381V4.26666Z" fill="#FFDA2C"/>
<path fill-rule="evenodd" clip-rule="evenodd" d="M4.19048 6.4L5.7619 5.86667L7.33333 6.4L6.28571 7.46667H5.23809L4.19048 6.4Z" fill="white"/>
</g>
</g>
<defs>
<clipPath id="clip0_2_1999">
<rect width="22" height="16" fill="white"/>
</clipPath>
<clipPath id="clip1_2_1999">
<rect width="22" height="16" rx="2" fill="white"/>
</clipPath>
</defs>
</svg>
