<svg width="22" height="16" viewBox="0 0 22 16" fill="none" xmlns="http://www.w3.org/2000/svg">
<g clip-path="url(#clip0_2_1941)">
<g clip-path="url(#clip1_2_1941)">
<rect width="22" height="16" rx="2" fill="#FFDA2C"/>
<rect width="22" height="16" fill="#FFDA2C"/>
<rect opacity="0.3" width="22" height="16" fill="#FF6C2D"/>
<path fill-rule="evenodd" clip-rule="evenodd" d="M2.09525 2.13333H5.2381V13.8667H2.09525V2.13333Z" fill="#0A6A30"/>
<path fill-rule="evenodd" clip-rule="evenodd" d="M5.2381 2.13333H8.38096V13.8667H5.2381V2.13333Z" fill="#FF6C2D"/>
<path opacity="0.2" fill-rule="evenodd" clip-rule="evenodd" d="M5.2381 2.13333H8.38096V13.8667H5.2381V2.13333Z" fill="#151515"/>
<path fill-rule="evenodd" clip-rule="evenodd" d="M9.42857 2.13333H19.9048V13.8667H9.42857V2.13333ZM13.1319 11.3238L13.1927 11.2768L13.2178 11.3238C13.2524 11.3878 13.3477 11.3856 13.4106 11.3238L13.4598 11.2736L13.5017 11.3216C13.5541 11.3856 13.6526 11.3856 13.7154 11.3216C13.7615 11.2768 13.7678 11.2758 13.7972 11.311C13.8139 11.3302 13.8652 11.3536 13.9103 11.3611C13.992 11.376 13.9941 11.375 14.0412 11.2779C14.0832 11.1968 14.0884 11.1648 14.079 11.0859C14.0727 11.0326 14.0653 10.9494 14.0632 10.8992C14.0612 10.8075 14.0612 10.8064 14.1596 10.7606C14.212 10.735 14.2749 10.7008 14.299 10.6838C14.3377 10.656 14.4456 10.4843 14.4456 10.4491C14.4456 10.4406 14.4037 10.4278 14.3513 10.4192C14.1471 10.3872 14.1125 10.2379 14.2466 9.96055C14.4634 9.51042 14.5944 9.06989 14.5954 8.78935C14.5954 8.66455 14.6007 8.62189 14.6132 8.65069C14.6614 8.76055 14.5745 9.22669 14.4425 9.56269L14.3901 9.69815L14.4404 9.68215C14.4676 9.67149 14.6321 9.57869 14.8039 9.47309C15.2753 9.18509 15.4377 9.12749 15.7436 9.14455C15.9992 9.15949 16.1082 9.22669 16.2884 9.48375C16.3848 9.61922 16.477 9.71629 16.6446 9.85922C17.005 10.1643 17.0196 10.1899 17.0364 10.5483C17.0542 10.911 17.0469 10.9323 16.8426 10.992C16.6697 11.0432 16.5597 11.152 16.5314 11.3046C16.5168 11.3867 16.5492 11.3899 16.6362 11.3131L16.6991 11.2576L16.7284 11.3131C16.7661 11.3878 16.8457 11.3878 16.9117 11.3131L16.961 11.2598L17.0113 11.3131C17.0909 11.3984 17.1967 11.3792 17.226 11.2704C17.2313 11.2512 17.247 11.2576 17.2784 11.2939C17.336 11.3622 17.4837 11.392 17.5005 11.3366C17.5068 11.3174 17.4942 11.2672 17.4743 11.2256C17.3884 11.0507 17.3612 10.9664 17.3591 10.8715C17.3591 10.7392 17.3873 10.6752 17.4994 10.5664C17.6356 10.4352 17.6775 10.2678 17.5749 10.2678C17.512 10.2678 17.4471 10.1899 17.4072 10.0651C17.3234 9.81442 17.3392 9.53175 17.4638 9.06242C17.5895 8.58242 17.6042 8.49709 17.6053 8.17709C17.6053 7.91789 17.6021 7.87309 17.5581 7.73122C17.5319 7.64589 17.4774 7.51575 17.4387 7.44535L17.3685 7.31735L17.4596 7.21282C17.7393 6.89922 17.6828 6.38509 17.3444 6.18882C17.2428 6.12695 17.2166 6.12162 17.0364 6.12482C16.9274 6.12482 16.764 6.14402 16.6697 6.16749C16.5733 6.18882 16.412 6.20802 16.301 6.20802C16.125 6.20802 16.0956 6.20375 16.0286 6.15469C15.9573 6.10349 15.9448 6.08002 15.9312 5.96269C15.9291 5.93709 15.9165 5.91362 15.9039 5.90935C15.8798 5.89869 15.7677 6.02669 15.7531 6.08642C15.7447 6.11415 15.7373 6.11202 15.7143 6.07575C15.6986 6.04909 15.6766 5.99042 15.6651 5.94562C15.6368 5.83042 15.6713 5.74295 15.7698 5.67895L15.8484 5.62989L15.8044 5.59149C15.7101 5.51255 15.5498 5.56589 15.4922 5.69815C15.4754 5.73335 15.4576 5.76429 15.4524 5.76429C15.4472 5.76429 15.4157 5.72909 15.3832 5.68642C15.2617 5.52642 15.3036 5.28749 15.4671 5.21389C15.553 5.17549 15.6294 5.20535 15.6452 5.28322C15.6692 5.40269 15.7457 5.24589 15.7321 5.10402C15.7216 5.01015 15.7216 5.00589 15.7709 5.00589C15.8379 5.00589 15.9804 5.12535 16.0254 5.21922C16.0778 5.32589 16.0726 5.49655 16.015 5.62242L15.9731 5.72162L16.0296 5.70669C16.1134 5.68322 16.1972 5.61069 16.2392 5.52535C16.2832 5.43362 16.2884 5.25549 16.2496 5.15842C16.2109 5.06562 16.2151 5.05175 16.2706 5.08375C16.367 5.13709 16.4172 5.19469 16.456 5.29709C16.4916 5.38775 16.4937 5.41015 16.4749 5.50509C16.4644 5.56375 16.4382 5.64055 16.4183 5.67575C16.3869 5.73229 16.3869 5.74189 16.411 5.74189C16.456 5.74189 16.5524 5.68322 16.5859 5.63522C16.6027 5.60962 16.6278 5.54989 16.6414 5.49869L16.6655 5.40909L16.6938 5.47735C16.7336 5.57335 16.8091 5.66189 16.9033 5.71629C17.005 5.77602 17.0469 5.78029 16.9945 5.72482C16.9589 5.68749 16.8929 5.42615 16.9128 5.40162C16.9232 5.38669 17.0615 5.52962 17.2166 5.71949C17.3653 5.90082 17.4575 5.95842 17.5937 5.95842C17.7687 5.95842 17.8692 5.75362 17.7928 5.56055C17.7456 5.44749 17.644 5.43255 17.5853 5.52855C17.5581 5.57335 17.5508 5.60855 17.5581 5.65442C17.5686 5.71202 17.5644 5.71842 17.5267 5.71842C17.4743 5.71842 17.3758 5.63309 17.1998 5.43255C16.9306 5.12855 16.6027 4.87042 16.367 4.77655C16.2151 4.71469 15.8913 4.69122 15.7384 4.72962C15.5708 4.77015 15.3717 4.90029 15.2649 5.03895C15.0742 5.28429 15.0721 5.60962 15.2575 5.90722L15.3099 5.99255L15.2743 6.06722C15.2219 6.17815 15.2261 6.32642 15.2848 6.43522C15.311 6.48322 15.3372 6.52269 15.3434 6.52269C15.3497 6.52269 15.356 6.49069 15.3581 6.45335C15.3633 6.35735 15.3937 6.29335 15.4461 6.26882C15.4922 6.24535 15.5226 6.25602 15.7373 6.37122C15.9626 6.49389 16.3324 6.50135 16.7263 6.39255C16.9201 6.34135 17.1474 6.34455 17.248 6.40109C17.4313 6.50562 17.4743 6.77655 17.3392 6.98242C17.2805 7.06989 17.2239 7.10615 17.0353 7.17655C16.8908 7.22989 16.8572 7.23415 16.5293 7.22989C16.2496 7.22562 16.1491 7.23309 16.0349 7.26509C15.9112 7.30029 15.8358 7.30349 15.4712 7.29175L15.0501 7.27682L15.0972 7.33015C15.1224 7.35789 15.1601 7.39415 15.1779 7.40802C15.2093 7.43149 15.2093 7.43469 15.1612 7.45815C15.1329 7.47309 15.0721 7.48375 15.025 7.48375H14.938L14.9275 7.58402C14.9212 7.63949 14.9212 7.70135 14.9275 7.72589C14.938 7.76109 14.9349 7.76535 14.9066 7.75255C14.8898 7.74189 14.8395 7.72589 14.7955 7.71309C14.7515 7.70029 14.6929 7.67575 14.6646 7.65655C14.6164 7.62455 14.6122 7.62455 14.5933 7.66722C14.5787 7.70562 14.432 7.85282 14.41 7.85282C14.4069 7.85282 14.4027 7.82402 14.3995 7.78882C14.3995 7.75469 14.3786 7.66402 14.3534 7.58829C14.3304 7.51362 14.3052 7.43042 14.299 7.40482C14.2885 7.36642 14.2853 7.36429 14.2728 7.39415C14.2654 7.41229 14.2539 7.46349 14.2476 7.50829C14.2424 7.55095 14.2204 7.62562 14.1994 7.66829L14.1617 7.74722L14.1376 7.67895C14.1125 7.60642 14.0695 7.52962 14.0538 7.52962C14.0486 7.52962 14.0392 7.55415 14.0329 7.58295C14.0224 7.64162 13.9208 7.80695 13.8967 7.80695C13.8862 7.80695 13.8789 7.76002 13.8789 7.70349C13.8789 7.64589 13.8715 7.60002 13.8611 7.60002C13.8527 7.60002 13.8443 7.61389 13.8443 7.63202C13.8443 7.67469 13.7573 7.80589 13.7291 7.80589C13.7154 7.80589 13.6955 7.82082 13.683 7.84002C13.6515 7.88909 13.6253 7.88269 13.6379 7.82935C13.6452 7.80269 13.6411 7.74402 13.6295 7.69602L13.6012 7.58402C13.5971 7.56695 13.5667 7.57122 13.5007 7.60002C13.3938 7.64589 13.3582 7.63842 13.4127 7.57869C13.4336 7.55735 13.4651 7.48482 13.4808 7.41655C13.4975 7.34829 13.5227 7.28855 13.5373 7.28109C13.5562 7.27469 13.5552 7.28429 13.5321 7.32589C13.5164 7.35575 13.5028 7.39629 13.5028 7.41549C13.5028 7.43469 13.4892 7.47949 13.4745 7.51682C13.4598 7.55522 13.4504 7.58829 13.4535 7.59149C13.4577 7.59682 13.4975 7.57655 13.5436 7.54669L13.6274 7.49335V7.54135C13.6274 7.56802 13.6379 7.63735 13.6484 7.69709L13.6714 7.80375L13.728 7.76855C13.7856 7.73229 13.8412 7.60322 13.8412 7.50402C13.8412 7.45282 13.8621 7.46135 13.8705 7.51469L13.8998 7.64269L13.925 7.74295L13.9637 7.67895C13.9847 7.64375 14.013 7.57549 14.0245 7.52642C14.0454 7.44322 14.0748 7.40695 14.0748 7.46775C14.0748 7.51255 14.1649 7.67042 14.1816 7.65762C14.19 7.65122 14.2068 7.59149 14.2183 7.52535C14.2434 7.38669 14.2832 7.29282 14.3094 7.31202C14.3199 7.32055 14.322 7.33335 14.3168 7.34402C14.3126 7.35469 14.3325 7.44535 14.3629 7.54455C14.3943 7.64375 14.4257 7.74402 14.431 7.76642C14.4414 7.80375 14.4519 7.79842 14.5169 7.72055C14.5588 7.67255 14.5944 7.61922 14.5986 7.60109C14.6049 7.57549 14.6143 7.57655 14.651 7.60749C14.7033 7.65229 14.8814 7.72482 14.8951 7.70562C14.9003 7.69922 14.9055 7.63629 14.9055 7.56695L14.9087 7.43895L14.9611 7.45282C14.9893 7.46135 15.048 7.46029 15.092 7.45282L15.1716 7.43682L15.1014 7.37069C15.0627 7.33442 15.0229 7.28749 15.0134 7.26615C15.003 7.24482 14.9673 7.22349 14.9296 7.22029C14.8217 7.20749 14.6321 7.06349 14.6321 6.99629C14.6321 6.98242 14.6583 7.00375 14.6908 7.04429C14.762 7.13175 14.8605 7.18722 14.9464 7.18722H15.0113L14.9715 7.11682C14.9485 7.07415 14.9275 6.99735 14.9223 6.93229C14.915 6.83095 14.9066 6.81495 14.828 6.74029C14.7809 6.69549 14.7212 6.62829 14.6971 6.59095L14.6531 6.52375L14.63 6.60375C14.6174 6.64855 14.6017 6.68375 14.5965 6.68375C14.5902 6.68375 14.5651 6.65815 14.5441 6.62722C14.52 6.59522 14.4959 6.56962 14.4917 6.56962C14.4844 6.56962 14.4645 6.61229 14.4446 6.66562L14.41 6.75842L14.3828 6.70509C14.3671 6.67309 14.3325 6.62189 14.3042 6.58775C14.2759 6.55149 14.2602 6.52375 14.2707 6.52375C14.2812 6.52375 14.3168 6.56002 14.3492 6.60375L14.409 6.68482L14.4331 6.62509C14.4467 6.59095 14.4519 6.53655 14.4456 6.49282C14.4352 6.42882 14.4372 6.42669 14.4561 6.46615C14.4666 6.49175 14.5012 6.54082 14.5326 6.57282L14.5892 6.63682L14.6279 6.54082C14.6667 6.44482 14.6677 6.44482 14.6845 6.50029C14.7086 6.57709 14.8783 6.76695 15.0229 6.87575C15.0438 6.89282 15.0354 6.83309 14.9946 6.69975C14.9841 6.66455 14.9736 6.60055 14.9736 6.55789C14.9736 6.49389 14.9611 6.46509 14.9003 6.40322C14.8144 6.31362 14.7872 6.25069 14.7704 6.10669C14.7641 6.04802 14.7494 5.98295 14.7369 5.96269C14.7191 5.93069 14.7159 5.94882 14.7212 6.05655C14.7232 6.13122 14.7159 6.22082 14.7044 6.25922L14.6834 6.32749L14.6667 6.26989C14.6562 6.23789 14.6174 6.18455 14.5776 6.14722C14.5357 6.11202 14.5095 6.07682 14.5148 6.06935C14.52 6.06295 14.5619 6.09495 14.6059 6.14189C14.674 6.21335 14.6897 6.22082 14.6981 6.18989C14.7086 6.15255 14.6981 5.99149 14.6772 5.88055C14.6667 5.82295 14.6667 5.82295 14.7191 5.89122C14.7568 5.94455 14.7767 6.00429 14.7924 6.11095C14.8133 6.24642 14.8238 6.27095 14.916 6.37762C14.9715 6.44482 15.0208 6.49495 15.0229 6.49069C15.0271 6.48642 15.0333 6.31575 15.0386 6.11202C15.0491 5.72269 15.0386 5.62989 14.9684 5.50935L14.9328 5.44749L14.9883 5.36535C15.0616 5.25869 15.0952 5.17335 15.1098 5.05602L15.1224 4.96002L15.0595 5.04215C15.0072 5.10829 14.9831 5.12322 14.9233 5.12322C14.8636 5.12322 14.8395 5.11042 14.8008 5.05175C14.7526 4.98242 14.6667 4.91629 14.585 4.88322C14.5535 4.87255 14.5431 4.87682 14.5431 4.90455C14.5431 4.92589 14.5273 4.98349 14.5064 5.03469L14.4697 5.12855L14.3922 5.02402C14.344 4.96002 14.2874 4.91095 14.2455 4.89602C14.1376 4.85762 14.1324 4.86082 14.1324 4.97069C14.1324 5.13389 14.08 5.16482 13.9857 5.05602C13.9155 4.97069 13.8558 4.95362 13.7207 4.97389L13.6159 4.98989L13.6369 5.05389C13.6515 5.10722 13.6473 5.12855 13.6138 5.18935C13.5593 5.28749 13.4881 5.33015 13.3792 5.33015C13.3289 5.33015 13.266 5.34402 13.2388 5.36215C13.2126 5.37815 13.1466 5.39842 13.0921 5.40482C13.0376 5.41229 12.98 5.42615 12.9632 5.43362C12.9381 5.44642 12.935 5.43575 12.9423 5.35682C12.9559 5.23522 12.8941 5.14669 12.7956 5.14669C12.6699 5.14669 12.6123 5.29922 12.6615 5.50082C12.6708 5.5349 12.6801 5.58745 12.6865 5.62345L12.6888 5.63629C12.6961 5.67362 12.7516 5.77282 12.8229 5.86775C12.8899 5.95949 12.9528 6.05442 12.9632 6.07895C12.9737 6.10349 13.0083 6.14295 13.0397 6.16642L13.0973 6.20909L13.09 6.12695C13.0816 6.03522 13.0963 6.02029 13.1319 6.08429C13.1455 6.10882 13.178 6.14615 13.2052 6.16962C13.2472 6.20375 13.2545 6.20482 13.2545 6.17389C13.2545 6.15255 13.2629 6.10989 13.2733 6.07362L13.2943 6.00962L13.3257 6.09709C13.3446 6.14509 13.4053 6.25495 13.4598 6.34242C13.5667 6.50775 13.6316 6.69442 13.5981 6.73709C13.5845 6.75522 13.5478 6.75309 13.4724 6.73282C13.4127 6.71789 13.3393 6.70935 13.309 6.71469C13.2461 6.72535 13.243 6.71469 13.2807 6.65069C13.3205 6.58349 13.3142 6.57282 13.2356 6.57282C13.1445 6.57282 12.9192 6.51309 12.8323 6.46615C12.7485 6.42349 12.7275 6.43415 12.7034 6.54082L12.6584 6.73815L12.6343 6.84482L12.7254 6.83415C12.7757 6.82669 12.8407 6.81282 12.869 6.80002C12.8983 6.78935 12.9245 6.78295 12.9276 6.78615C12.9308 6.79042 12.9172 6.83309 12.8993 6.88002L12.8637 6.96535L12.9213 6.95042C12.9528 6.94189 12.9999 6.92055 13.0261 6.90349C13.0722 6.87362 13.0753 6.87575 13.112 6.95362C13.156 7.04962 13.1916 7.04642 13.199 6.94295C13.2073 6.83842 13.2335 6.85442 13.2828 6.99415C13.3278 7.12855 13.3771 7.17549 13.3854 7.09655C13.3886 7.07095 13.4127 7.02722 13.441 7.00055C13.4965 6.94722 13.5384 6.96429 13.5614 7.04749C13.5876 7.13282 13.5321 7.22242 13.3729 7.35469C13.0481 7.61922 12.8616 7.98189 12.8072 8.44269C12.759 8.85869 12.9098 9.28962 13.2126 9.59895C13.3572 9.74829 13.5876 9.90295 13.573 9.84429C13.5122 9.59042 13.5143 9.10829 13.5772 9.02615C13.5876 9.01335 13.5834 9.06349 13.5698 9.13709C13.5195 9.41229 13.5415 9.63095 13.6714 10.144C13.7867 10.6091 13.772 10.8075 13.6065 10.9376C13.5541 10.9803 13.5185 10.9867 13.376 10.9846C13.221 10.9824 13.2042 10.9867 13.1539 11.04C13.1057 11.0934 13.0439 11.264 13.0439 11.343C13.0439 11.3856 13.0785 11.3803 13.1487 11.3259L13.1319 11.3238ZM11.9586 10.4704C11.9753 10.4416 11.9879 10.3958 11.9879 10.3691C11.9879 10.3286 12.0015 10.3179 12.0686 10.3051L12.1492 10.2902L12.0969 10.2315C12.0319 10.1632 12.0256 10.1099 12.0822 10.1099C12.1377 10.1099 12.2331 10.031 12.2477 9.97122C12.2551 9.94562 12.2509 9.90935 12.2393 9.89015C12.2079 9.84215 12.1482 9.84962 12.1377 9.90295C12.1252 9.96055 12.1063 9.96162 12.0612 9.90295C11.9942 9.81762 11.9921 9.63842 12.0581 9.53389C12.0874 9.48482 12.0874 9.48055 12.0476 9.43149C12.0057 9.37602 11.9743 9.26829 11.9952 9.24269C12.0015 9.23522 12.0351 9.24269 12.0686 9.25762C12.1189 9.27895 12.1388 9.28109 12.1587 9.25762C12.2215 9.19362 12.1534 9.10829 12.0539 9.12749C12.0152 9.13495 11.9994 9.12749 11.9932 9.09975C11.989 9.07842 11.9544 9.04962 11.9146 9.03575C11.8454 9.01229 11.8444 9.01442 11.8444 9.07842C11.8444 9.14989 11.813 9.16375 11.7574 9.11789C11.7103 9.08055 11.6652 9.10935 11.6652 9.17655C11.6652 9.23842 11.7124 9.26935 11.7952 9.26189C11.858 9.25655 11.8612 9.32162 11.8004 9.41335L11.7564 9.48055L11.791 9.54775C11.8433 9.64695 11.8381 9.81229 11.7805 9.89442L11.7386 9.95842L11.7092 9.90722C11.6694 9.83575 11.615 9.84109 11.5992 9.91789C11.5888 9.96802 11.5992 9.99042 11.6443 10.0438C11.6757 10.079 11.7208 10.1078 11.7449 10.1078C11.8056 10.1078 11.8035 10.1718 11.7407 10.2379L11.6914 10.2891L11.769 10.3051C11.8109 10.3136 11.8444 10.3307 11.8444 10.3424C11.8444 10.3851 11.8968 10.5216 11.9146 10.5216C11.9251 10.5216 11.946 10.5003 11.9596 10.4715L11.9586 10.4704ZM12.2236 8.15575C12.3975 8.05229 12.4122 7.78882 12.2488 7.71842C12.1807 7.69069 12.1377 7.70775 12.1126 7.76855C12.0916 7.81655 12.1052 7.90295 12.1335 7.90295C12.1419 7.90295 12.1492 7.91789 12.1492 7.93709C12.1492 8.02882 11.8842 8.07042 11.7763 7.99575C11.7386 7.96909 11.7239 7.90189 11.7553 7.90189C11.7763 7.90189 11.7941 7.83149 11.7826 7.78242C11.7658 7.71629 11.7155 7.69282 11.6443 7.71842C11.4819 7.77602 11.4872 8.03415 11.6516 8.14509C11.7878 8.23362 12.0853 8.23895 12.2257 8.15575H12.2236ZM12.1157 7.95309C12.1262 7.94242 12.122 7.92109 12.1052 7.90295C12.0686 7.86349 12.0707 7.80482 12.1105 7.73762C12.1419 7.68749 12.1451 7.61282 12.1555 6.85655C12.1733 5.55095 12.2446 4.57069 12.3389 4.33602C12.3766 4.24215 12.3703 4.24002 12.2739 4.33069C12.1482 4.44589 12.0539 4.59735 11.9701 4.81069C11.8109 5.21602 11.7553 5.76215 11.7553 6.92695C11.7553 7.58829 11.7595 7.67362 11.7868 7.73762C11.814 7.79522 11.8151 7.81762 11.7972 7.88055C11.7847 7.92109 11.7794 7.96055 11.7847 7.96589C11.8203 8.01282 12.078 8.00109 12.1168 7.95202L12.1157 7.95309ZM11.5238 3.2H10.4762V4.26666H11.5238V3.2ZM18.8571 3.2H17.8095V4.26666H18.8571V3.2ZM11.5238 11.7333H10.4762V12.8H11.5238V11.7333ZM18.8571 11.7333H17.8095V12.8H18.8571V11.7333Z" fill="#AF010D"/>
</g>
</g>
<defs>
<clipPath id="clip0_2_1941">
<rect width="22" height="16" fill="white"/>
</clipPath>
<clipPath id="clip1_2_1941">
<rect width="22" height="16" rx="2" fill="white"/>
</clipPath>
</defs>
</svg>
