<svg width="22" height="16" viewBox="0 0 22 16" fill="none" xmlns="http://www.w3.org/2000/svg">
<g clip-path="url(#clip0_2_1928)">
<g clip-path="url(#clip1_2_1928)">
<rect width="22" height="16" rx="2" fill="white"/>
<path fill-rule="evenodd" clip-rule="evenodd" d="M0 11.7333H22V16H0V11.7333ZM0 0H22V4.26667H0V0Z" fill="#0A6A30"/>
<path opacity="0.2" fill-rule="evenodd" clip-rule="evenodd" d="M0 11.7333H22V16H0V11.7333ZM0 0H22V4.26667H0V0Z" fill="#1A47B8"/>
<path fill-rule="evenodd" clip-rule="evenodd" d="M0 5H22V11H0V5Z" fill="#AF010D"/>
<path fill-rule="evenodd" clip-rule="evenodd" d="M11 9.14548L9.76367 10L9.99916 8.19036L9 6.90803L10.3818 6.64603L11 5L11.6182 6.64714L13 6.90913L11.9992 8.19147L12.2347 10" fill="#FFDA2C"/>
</g>
</g>
<defs>
<clipPath id="clip0_2_1928">
<rect width="22" height="16" fill="white"/>
</clipPath>
<clipPath id="clip1_2_1928">
<rect width="22" height="16" rx="2" fill="white"/>
</clipPath>
</defs>
</svg>
