<svg width="22" height="16" viewBox="0 0 22 16" fill="none" xmlns="http://www.w3.org/2000/svg">
<g clip-path="url(#clip0_2_1855)">
<rect width="22" height="16" rx="2" fill="#249F58"/>
<path fill-rule="evenodd" clip-rule="evenodd" d="M2.09524 0H3.14286V16H2.09524V0ZM4.19048 0H5.2381V16H4.19048V0ZM6.28571 0H7.33333V16H6.28571V0Z" fill="#D4AF2C"/>
<path fill-rule="evenodd" clip-rule="evenodd" d="M5.2381 0L7.33333 1.6L5.2381 3.2V0ZM5.2381 3.2L7.33333 4.8L5.2381 6.4V3.2ZM5.2381 6.4L7.33333 8L5.2381 9.6V6.4ZM5.2381 9.6L7.33333 11.2L5.2381 12.8V9.6ZM5.2381 12.8L7.33333 14.4L5.2381 16V12.8ZM4.19048 0L2.09524 1.6L4.19048 3.2V0ZM4.19048 3.2L2.09524 4.8L4.19048 6.4V3.2ZM4.19048 6.4L2.09524 8L4.19048 9.6V6.4ZM4.19048 9.6L2.09524 11.2L4.19048 12.8V9.6ZM4.19048 12.8L2.09524 14.4L4.19048 16V12.8ZM4.19048 0H5.2381V2.13333H4.19048V0ZM4.19048 13.8667H5.2381V16H4.19048V13.8667ZM4.19048 5.33333H5.2381V7.46667H4.19048V5.33333ZM4.19048 3.2H5.2381V4.26667H4.19048V3.2ZM4.19048 11.7333H5.2381V12.8H4.19048V11.7333ZM4.19048 8.53333H5.2381V10.6667H4.19048V8.53333Z" fill="#AE6A3E"/>
<path fill-rule="evenodd" clip-rule="evenodd" d="M11.771 3.21495C11.8622 3.20428 11.9544 3.20001 12.0476 3.20001C13.4933 3.20001 14.6667 4.39468 14.6667 5.86668C14.6667 7.33868 13.4933 8.53335 12.0476 8.53335C10.6019 8.53335 9.42857 7.33868 9.42857 5.86668C9.42857 5.77068 9.43381 5.67788 9.44324 5.58508C9.56476 6.64535 10.449 7.46668 11.5238 7.46668C12.6814 7.46668 13.619 6.51201 13.619 5.33335C13.619 4.24001 12.8124 3.33868 11.771 3.21495ZM10.4762 4.26668H11.5238V5.33335H10.4762V4.26668Z" fill="white"/>
<path opacity="0.5" fill-rule="evenodd" clip-rule="evenodd" d="M8.38095 4.26666H9.42857V5.33333H8.38095V4.26666ZM10.4762 2.13333H11.5238V3.2H10.4762V2.13333Z" fill="white"/>
</g>
<defs>
<clipPath id="clip0_2_1855">
<rect width="22" height="16" fill="white"/>
</clipPath>
</defs>
</svg>
