<svg width="22" height="16" viewBox="0 0 22 16" fill="none" xmlns="http://www.w3.org/2000/svg">
<g clip-path="url(#clip0_2_1862)">
<rect width="22" height="16" rx="2" fill="#F93939"/>
<path fill-rule="evenodd" clip-rule="evenodd" d="M14.6688 9.2288L13.4514 9.87946L13.684 8.50026L12.6992 7.52213L14.0611 7.31946L14.6688 6.06506L15.2764 7.32053L16.6383 7.5232L15.6535 8.4992L15.8861 9.8784" fill="white"/>
<path fill-rule="evenodd" clip-rule="evenodd" d="M9.95238 11.7333C11.9774 11.7333 13.619 10.0619 13.619 8C13.619 5.93813 11.9774 4.26666 9.95238 4.26666C7.92733 4.26666 6.28571 5.93813 6.28571 8C6.28571 10.0619 7.92733 11.7333 9.95238 11.7333ZM11 10.6667C12.4457 10.6667 13.619 9.472 13.619 8C13.619 6.528 12.4457 5.33333 11 5.33333C9.55428 5.33333 8.38095 6.528 8.38095 8C8.38095 9.472 9.55428 10.6667 11 10.6667Z" fill="white"/>
</g>
<defs>
<clipPath id="clip0_2_1862">
<rect width="22" height="16" fill="white"/>
</clipPath>
</defs>
</svg>
