<svg width="22" height="16" viewBox="0 0 22 16" fill="none" xmlns="http://www.w3.org/2000/svg">
<g clip-path="url(#clip0_2_1814)">
<g clip-path="url(#clip1_2_1814)">
<rect width="22" height="16" rx="2" fill="white"/>
<path fill-rule="evenodd" clip-rule="evenodd" d="M0 0H9.42857V7.46667H0V0Z" fill="#1A47B8"/>
<path fill-rule="evenodd" clip-rule="evenodd" d="M9.42857 0V1.06667H22V0H9.42857ZM9.42857 2.13333V3.2H22V2.13333H9.42857ZM9.42857 4.26667V5.33333H22V4.26667H9.42857ZM9.42857 6.4V7.46667H22V6.4H9.42857ZM0 8.53333V9.6H22V8.53333H0ZM0 10.6667V11.7333H22V10.6667H0ZM0 12.8V13.8667H22V12.8H0ZM0 14.9333V16H22V14.9333H0Z" fill="#F93939"/>
<path fill-rule="evenodd" clip-rule="evenodd" d="M1.04762 1.06668V2.13335H2.09524V1.06668H1.04762ZM3.14286 1.06668V2.13335H4.19048V1.06668H3.14286ZM5.2381 1.06668V2.13335H6.28571V1.06668H5.2381ZM7.33333 1.06668V2.13335H8.38095V1.06668H7.33333ZM6.28571 2.13335V3.20001H7.33333V2.13335H6.28571ZM4.19048 2.13335V3.20001H5.2381V2.13335H4.19048ZM2.09524 2.13335V3.20001H3.14286V2.13335H2.09524ZM1.04762 3.20001V4.26668H2.09524V3.20001H1.04762ZM3.14286 3.20001V4.26668H4.19048V3.20001H3.14286ZM5.2381 3.20001V4.26668H6.28571V3.20001H5.2381ZM7.33333 3.20001V4.26668H8.38095V3.20001H7.33333ZM1.04762 5.33335V6.40001H2.09524V5.33335H1.04762ZM3.14286 5.33335V6.40001H4.19048V5.33335H3.14286ZM5.2381 5.33335V6.40001H6.28571V5.33335H5.2381ZM7.33333 5.33335V6.40001H8.38095V5.33335H7.33333ZM6.28571 4.26668V5.33335H7.33333V4.26668H6.28571ZM4.19048 4.26668V5.33335H5.2381V4.26668H4.19048ZM2.09524 4.26668V5.33335H3.14286V4.26668H2.09524Z" fill="white"/>
</g>
</g>
<defs>
<clipPath id="clip0_2_1814">
<rect width="22" height="16" fill="white"/>
</clipPath>
<clipPath id="clip1_2_1814">
<rect width="22" height="16" rx="2" fill="white"/>
</clipPath>
</defs>
</svg>
